<?xml version="1.0" standalone="no"?>
<!DOCTYPE svg PUBLIC "-//W3C//DTD SVG 1.1//EN" "http://www.w3.org/Graphics/SVG/1.1/DTD/svg11.dtd" >
<svg xmlns="http://www.w3.org/2000/svg" xmlns:xlink="http://www.w3.org/1999/xlink" version="1.1">
<metadata>
Created by FontForge 20170812 at Sat Dec 26 16:23:49 2020
 By www-data
Copyright (c) 2020 by Artem Nevsky. All rights reserved.
</metadata>
<defs>
<font id="Miracle" horiz-adv-x="531" >
  <font-face 
    font-family="Miracle"
    font-weight="400"
    font-stretch="normal"
    units-per-em="1000"
    panose-1="2 0 5 6 0 0 0 2 0 4"
    ascent="800"
    descent="-200"
    x-height="474"
    cap-height="700"
    bbox="-66 -266 1512 949.481"
    underline-thickness="50"
    underline-position="-150"
    unicode-range="U+0020-F6C3"
  />
<missing-glyph horiz-adv-x="230" 
 />
    <glyph glyph-name=".notdef" horiz-adv-x="230" 
 />
    <glyph glyph-name=".null" horiz-adv-x="0" 
 />
    <glyph glyph-name="nonmarkingreturn" horiz-adv-x="333" 
 />
    <glyph glyph-name="space" unicode=" " horiz-adv-x="230" 
 />
    <glyph glyph-name="exclam" unicode="!" horiz-adv-x="240" 
d="M123 183h-7l-56 527h120zM120 103q22 0 38 -15.5t16 -38.5t-16 -38.5t-38 -15.5q-23 0 -39 16t-16 38t16 38t39 16z" />
    <glyph glyph-name="quotedbl" unicode="&#x22;" horiz-adv-x="273" 
d="M89 722q13 0 21.5 -9.5t6.5 -28.5q-15 -153 -28 -153t-28 153q-2 19 6.5 28.5t21.5 9.5zM183 722q13 0 21.5 -9.5t7.5 -28.5q-17 -153 -29 -153q-13 0 -28 153q-2 19 6.5 28.5t21.5 9.5z" />
    <glyph glyph-name="numbersign" unicode="#" horiz-adv-x="1243" 
d="M1183 533h-326l-88 -366h324v-8h-326l-78 -325h-8l78 325h-366l-79 -325h-7l78 325h-325v8h327l88 366h-324v8h326l78 325h8l-79 -325h367l78 325h8l-78 -325h324v-8zM761 167l88 366h-367l-88 -366h367z" />
    <glyph glyph-name="dollar" unicode="$" horiz-adv-x="633" 
d="M344 407q44 -17 68 -26.5t59.5 -29.5t54 -39t33 -49t14.5 -65q0 -84 -64.5 -140.5t-164.5 -62.5v-102h-8v102h-13q-63 0 -136 20.5t-127 56.5v136q40 -76 115.5 -133t160.5 -63v301q-33 13 -49 19t-45.5 20t-45 24.5t-36.5 27.5t-31.5 34.5t-18 41.5t-7.5 51
q0 72 52.5 125.5t162.5 53.5h18v97h8v-98q101 -9 183 -63v-104q-76 117 -183 148v-283zM336 410v282q-19 5 -43 5q-142 0 -152 -116q-2 -20 3 -37.5t13 -31t25 -26.5t30.5 -22t38.5 -20t40.5 -17t44.5 -17zM354 11q72 0 119.5 32.5t54.5 89.5q4 29 -5 53.5t-23.5 40.5
t-43.5 33t-51 26t-61 24v-298q3 -1 10 -1z" />
    <glyph glyph-name="percent" unicode="%" horiz-adv-x="1086" 
d="M752 743h8l-408 -777h-8zM471 515q0 -82 -61 -139t-144 -57q-84 0 -145 57t-61 139t61.5 139t144.5 57t144 -57t61 -139zM266 329q63 0 101.5 53.5t38.5 132.5q0 78 -38.5 132t-101.5 54t-102 -54t-39 -132q0 -79 38.5 -132.5t102.5 -53.5zM821 387q83 0 144 -57t61 -139
t-61 -139t-144 -57q-84 0 -145 57t-61 139t61.5 139t144.5 57zM821 4q63 0 101.5 54t38.5 133q0 78 -38.5 132t-101.5 54t-102 -54t-39 -132q0 -79 38.5 -133t102.5 -54z" />
    <glyph glyph-name="ampersand" unicode="&#x26;" horiz-adv-x="863" 
d="M789 582q28 -47 -0.5 -110t-85.5 -99t-124 -17q21 -18 33 -52t13 -74t-15 -82t-45.5 -76t-84 -55.5t-124.5 -21.5q-119 0 -200.5 57t-92.5 128q-12 75 23.5 131t101 77t139.5 2q-2 1 -25 8.5t-29 9.5t-28 10.5t-30 13t-26 15t-25.5 18.5t-19.5 21t-16.5 26t-7.5 29.5
t-2 34.5q2 24 14 49.5t40.5 50t70 37.5t109 6.5t149.5 -37.5v-108q-48 81 -118.5 118.5t-121.5 16.5q-67 -29 -67 -127q0 -67 48.5 -121.5t137.5 -86.5q-1 -3 -3 -6q-81 28 -135.5 7.5t-81 -74.5t-19.5 -127q6 -69 66 -119t154 -50q60 0 108 17t77 45t47.5 63t22 71.5
t-1.5 69t-21 57.5t-39 36q-45 -92 -91 -125q-32 -24 -66.5 -24t-45.5 25q-8 19 0.5 38.5t33.5 39t44.5 31.5t51.5 30l3 -6q-112 -61 -95 -108q7 -21 31 -21t47 15q9 5 17 12.5t16.5 19.5t14.5 20t15.5 26t13.5 25.5t15 29.5l14 28q10 19 26 55t25.5 55.5t24.5 40.5t29 31
q34 23 64 16.5t47 -36.5zM700 378q47 31 61 83.5t-11 86.5q-37 56 -85 23q-9 -6 -20.5 -24t-20 -34.5t-23 -48t-21.5 -45.5q-4 -8 -11 -24t-11 -24q76 -37 142 7z" />
    <glyph glyph-name="quotesingle" unicode="'" horiz-adv-x="178" 
d="M89 722q13 0 21.5 -9.5t6.5 -28.5q-15 -153 -28 -153t-28 153q-2 19 6.5 28.5t21.5 9.5z" />
    <glyph glyph-name="parenleft" unicode="(" horiz-adv-x="369" 
d="M68 301q0 -178 64 -297.5t177 -153.5l-2 -8q-116 35 -181.5 156.5t-65.5 302.5t65.5 303t181.5 157l2 -8q-113 -34 -177 -153.5t-64 -298.5z" />
    <glyph glyph-name="parenright" unicode=")" horiz-adv-x="370" 
d="M63 761q116 -35 181.5 -157t65.5 -303q0 -180 -65.5 -302t-181.5 -157l-3 8q113 34 177.5 153.5t64.5 297.5t-64.5 298t-177.5 154z" />
    <glyph glyph-name="asterisk" unicode="*" horiz-adv-x="362" 
d="M300 635q4 -12 -2 -24t-25 -14q-42 -6 -70 -8q17 -12 52 -46q27 -26 -1 -48q-8 -8 -22.5 -5t-22.5 20q-23 47 -28 64q-11 -30 -28 -64q-8 -17 -22.5 -20t-22.5 5q-28 22 -1 48q35 34 52 46q-28 2 -70 8q-19 2 -25 14t-2 24q4 13 15 18t30 -3q45 -24 60 -35q-8 34 -14 69
q-3 19 6 28.5t22 9.5t22 -9.5t6 -28.5q-6 -35 -14 -69q15 11 60 35q19 8 30 3t15 -18z" />
    <glyph glyph-name="plus" unicode="+" horiz-adv-x="505" 
d="M445 354v-8h-189v-189h-8v189h-188v8h188v188h8v-188h189z" />
    <glyph glyph-name="comma" unicode="," horiz-adv-x="229" 
d="M114 103q23 0 39 -16t16 -38q0 -76 -90 -148l-5 5q61 54 77 103q-16 -14 -37 -14q-22 0 -38 15.5t-16 38.5t16 38.5t38 15.5z" />
    <glyph glyph-name="hyphen" unicode="-" horiz-adv-x="505" 
d="M60 354h385v-8h-385v8z" />
    <glyph glyph-name="period" unicode="." horiz-adv-x="228" 
d="M114 103q22 0 38 -15.5t16 -38.5t-16 -38.5t-38 -15.5t-38 15.5t-16 38.5t16 38.5t38 15.5z" />
    <glyph glyph-name="slash" unicode="/" horiz-adv-x="483" 
d="M416 866h7l-356 -1032h-7z" />
    <glyph glyph-name="zero" unicode="0" horiz-adv-x="665" 
d="M332 710q109 0 191 -105.5t82 -252.5q0 -156 -79 -256.5t-194 -100.5q-108 0 -190 105.5t-82 251.5q0 156 78.5 257t193.5 101zM332 5q61 0 106.5 50t67 127.5t21.5 169.5q0 144 -52 246t-143 102q-61 0 -106 -50t-66.5 -127.5t-21.5 -170.5q0 -92 21.5 -169.5
t66.5 -127.5t106 -50z" />
    <glyph glyph-name="one" unicode="1" horiz-adv-x="353" 
d="M215 8h78v-8h-233v8h78v638l-76 -52v20l153 86v-692z" />
    <glyph glyph-name="two" unicode="2" horiz-adv-x="572" 
d="M151 74h361v-74h-452v8q7 6 44 37.5t49 41.5t46.5 41.5t48.5 47.5t43 48t42 53.5t33 54.5t28.5 60.5t15.5 61.5t7 68q0 78 -40.5 128t-105.5 50q-59 0 -109 -37t-81 -106l-6 4q68 149 211 149q88 0 149.5 -51t61.5 -146q0 -94 -81 -190t-265 -249z" />
    <glyph glyph-name="three" unicode="3" horiz-adv-x="618" 
d="M309 394q110 20 186.5 -42.5t59.5 -171.5q-12 -72 -80 -128.5t-170 -56.5q-136 0 -245 111l7 8q35 -40 97 -74.5t135 -34.5q85 0 128 48t50 121q10 114 -55.5 175t-181.5 19l-2 6q175 54 175 197q0 59 -35 94.5t-88 35.5q-112 0 -164 -107l-6 5q60 112 180 112
q84 0 136.5 -41t52.5 -105q0 -36 -16 -65t-46.5 -49t-56 -32t-61.5 -25z" />
    <glyph glyph-name="four" unicode="4" horiz-adv-x="646" 
d="M481 166h105v-8h-105v-158h-76v158h-345v8l345 446v88h76v-534zM405 166v435l-335 -435h335z" />
    <glyph glyph-name="five" unicode="5" horiz-adv-x="611" 
d="M154 398q71 36 146.5 38t132 -25t90.5 -81.5t26 -122.5q-10 -88 -79.5 -150t-180.5 -62q-67 0 -127 37t-102 93l6 10q37 -57 97.5 -93.5t120.5 -36.5q62 0 105 30.5t61 73t21 92.5q8 132 -80.5 189.5t-241.5 -1.5l-3 7l52 304h326v-75h-332z" />
    <glyph glyph-name="six" unicode="6" horiz-adv-x="622" 
d="M343 458q87 0 153 -62.5t66 -161.5t-67 -169t-172 -70q-49 0 -94 17t-84 51.5t-62 96t-23 141.5q0 104 37 196.5t110.5 152.5t168.5 60q38 0 77.5 -14t61.5 -42l-5 -5q-20 24 -58.5 38.5t-75.5 14.5q-55 0 -99 -26.5t-71 -67.5t-44.5 -96.5t-24.5 -108t-7 -106.5
q18 64 74 112.5t139 48.5zM318 5q86 0 131.5 62.5t45.5 156.5q0 95 -48 158.5t-121 63.5q-42 0 -78.5 -18.5t-60.5 -46t-39 -57t-18 -55.5q0 -120 47 -192t141 -72z" />
    <glyph glyph-name="seven" unicode="7" horiz-adv-x="561" 
d="M60 710h441v-7l-304 -703h-30l299 636h-406v74z" />
    <glyph glyph-name="eight" unicode="8" horiz-adv-x="620" 
d="M349 394q107 -54 141 -81q70 -56 70 -129q0 -80 -71.5 -134.5t-176.5 -54.5q-110 0 -181 45t-71 126q0 128 181 209q-58 35 -89.5 75.5t-30.5 97.5q2 67 61.5 115t144.5 48q76 0 129 -41.5t53 -110.5q0 -32 -16 -60.5t-42.5 -48.5t-50.5 -33t-51 -23zM177 580
q-3 -61 39 -100.5t125 -81.5q110 48 106 172q-3 63 -44.5 97t-87.5 34q-48 0 -91.5 -31.5t-46.5 -89.5zM505 136q2 36 -11.5 66t-44.5 54t-58.5 40t-74 39t-70.5 37q-122 -55 -122 -171q0 -102 58 -149t141 -47q19 0 44 5t57.5 17t55.5 40.5t25 68.5z" />
    <glyph glyph-name="nine" unicode="9" horiz-adv-x="622" 
d="M299 710q49 0 94 -17t84 -51.5t62 -96t23 -141.5q0 -104 -37 -196.5t-110.5 -152.5t-168.5 -60q-38 0 -77.5 14t-61.5 42l5 4q20 -24 58.5 -38t75.5 -14q55 0 99 26.5t71 67.5t44.5 96.5t24.5 108t7 106.5q-18 -64 -74 -113t-139 -49q-87 0 -153 63t-66 162t67 169
t172 70zM296 259q42 0 78.5 18.5t60.5 46t39 57t18 55.5q0 120 -47 192t-141 72q-86 0 -131.5 -62.5t-45.5 -156.5q0 -95 48 -158.5t121 -63.5z" />
    <glyph glyph-name="colon" unicode=":" horiz-adv-x="228" 
d="M114 103q22 0 38 -15.5t16 -38.5t-16 -38.5t-38 -15.5t-38 15.5t-16 38.5t16 38.5t38 15.5zM114 373q-22 0 -38 15.5t-16 38.5t16 38.5t38 15.5t38 -15.5t16 -38.5t-16 -38.5t-38 -15.5z" />
    <glyph glyph-name="semicolon" unicode=";" horiz-adv-x="229" 
d="M114 373q-22 0 -38 15.5t-16 38.5t16 38.5t38 15.5q23 0 39 -16t16 -38t-16 -38t-39 -16zM114 103q23 0 39 -16t16 -38q0 -76 -90 -148l-5 5q61 54 77 103q-16 -14 -37 -14q-22 0 -38 15.5t-16 38.5t16 38.5t38 15.5z" />
    <glyph glyph-name="less" unicode="&#x3c;" horiz-adv-x="422" 
d="M362 422v-8l-293 -129l293 -128v-9l-302 133v9z" />
    <glyph glyph-name="equal" unicode="=" horiz-adv-x="505" 
d="M60 440h385v-7h-385v7zM60 260v7h385v-7h-385z" />
    <glyph glyph-name="greater" unicode="&#x3e;" horiz-adv-x="422" 
d="M60 422l302 -132v-9l-302 -133v9l293 128l-293 129v8z" />
    <glyph glyph-name="question" unicode="?" horiz-adv-x="521" 
d="M199 103q23 0 38.5 -15.5t15.5 -38.5t-15.5 -38.5t-38.5 -15.5t-38.5 15.5t-15.5 38.5t15.5 38.5t38.5 15.5zM259 710q84 0 143 -45t59 -128q0 -45 -26.5 -88.5t-68 -76t-83 -55.5t-80.5 -37v-97h-8v102q40 15 69.5 32.5t57.5 45.5t43 70t15 97q0 73 -39.5 121.5
t-103.5 48.5q-57 0 -104 -38.5t-67 -104.5l-6 4q26 78 79.5 113.5t119.5 35.5z" />
    <glyph glyph-name="at" unicode="@" horiz-adv-x="1079" 
d="M822 -5q-54 -4 -93.5 29.5t-39.5 114.5v130q-8 -50 -21.5 -93t-37 -86.5t-62 -69t-88.5 -25.5q-68 0 -125.5 54t-59.5 143q-2 71 22 125t60 84t85 49t89 25t79 6q63 0 138 -35v-326q0 -54 18 -82t56 -25q58 4 112 78t54 183q0 167 -123.5 280.5t-296.5 117.5
q-85 2 -171.5 -24.5t-161.5 -78t-125.5 -137.5t-56.5 -192q-7 -106 24 -191t82 -135.5t117 -84.5t123.5 -47t107.5 -13q62 0 122.5 13t99 30t72.5 38t46 30.5t16 13.5l8 -8q-2 -3 -17 -14.5t-48 -31t-73.5 -37t-101.5 -31t-124 -14.5q-29 0 -65.5 5t-84.5 19.5t-93 37
t-88.5 61t-74.5 87t-48 119.5t-11 154q6 88 40.5 162.5t87.5 125.5t120 87t137.5 52t140.5 15q178 -2 304.5 -119.5t126.5 -289.5q0 -117 -60.5 -195t-136.5 -84zM524 13q52 10 92 72t56.5 128t16.5 115v139q-23 9 -60 9q-27 -1 -53.5 -5.5t-58.5 -15.5t-58 -33.5
t-47.5 -53.5t-32 -80.5t-7.5 -110.5q4 -70 48 -123t104 -41z" />
    <glyph glyph-name="A" unicode="A" horiz-adv-x="554" 
d="M465 0l-104 269h-248l-95 -269h-8l218 614l-33 86h79l270 -700h-79zM116 276h242l-126 328z" />
    <glyph glyph-name="B" unicode="B" horiz-adv-x="628" 
d="M363 374q64 -7 116.5 -26t90.5 -60.5t38 -99.5q0 -50 -27.5 -88.5t-72.5 -59t-94.5 -30.5t-101.5 -10h-252v700h209q55 0 101.5 -6.5t93 -23.5t73.5 -51.5t27 -84.5q0 -137 -201 -160zM269 692h-131v-316h131q217 0 217 158t-217 158zM312 7q114 0 165.5 52t51.5 129
q0 76 -51.5 128t-165.5 52h-174v-361h174z" />
    <glyph glyph-name="C" unicode="C" horiz-adv-x="736" 
d="M709 202l7 -4q-98 -203 -327 -203q-149 0 -259 105t-110 252q0 97 53 180t140 130.5t184 47.5q74 0 150 -27.5t103 -50.5v-119q-57 96 -156.5 145.5t-198.5 27.5q-62 -13 -107.5 -55.5t-66 -100t-24 -125.5t18.5 -134q40 -132 141 -197t234 -45q142 22 218 173z" />
    <glyph glyph-name="D" unicode="D" horiz-adv-x="708" 
d="M287 700q173 0 287 -100.5t114 -249.5t-114 -249.5t-287 -100.5h-227v700h227zM287 7q146 0 234.5 99.5t88.5 243.5q0 143 -88.5 242.5t-234.5 99.5h-149v-685h149z" />
    <glyph glyph-name="E" unicode="E" horiz-adv-x="463" 
d="M139 7l284 54v-61h-363v700h352v-62l-273 54v-295l252 22v-51l-252 22v-383z" />
    <glyph glyph-name="F" unicode="F" horiz-adv-x="421" 
d="M391 638l-252 54v-327l230 21v-50l-230 21v-357h-79v700h331v-62z" />
    <glyph glyph-name="G" unicode="G" horiz-adv-x="756" 
d="M617 333h79v-175q-12 -25 -35 -50.5t-60.5 -52t-96 -43.5t-127.5 -17q-148 0 -252.5 104.5t-104.5 252.5q0 147 113.5 252.5t263.5 105.5q74 0 149.5 -27t102.5 -51v-119q-56 96 -156 145.5t-198 27.5q-62 -13 -107.5 -55.5t-66 -100t-24 -125.5t18.5 -134
q41 -135 136 -202.5t227 -50.5q82 11 138 72v243z" />
    <glyph glyph-name="H" unicode="H" horiz-adv-x="626" 
d="M487 700h79v-700h-79v411h-348v-411h-79v700h79v-282h348v282z" />
    <glyph glyph-name="I" unicode="I" horiz-adv-x="199" 
d="M60 700h79v-700h-79v700z" />
    <glyph glyph-name="J" unicode="J" horiz-adv-x="252" 
d="M34 700h158v-538q0 -62 -19 -108.5t-54.5 -76.5t-68 -47t-77.5 -32l-3 9q49 18 78.5 44.5t47 78.5t17.5 132v530h-79v8z" />
    <glyph glyph-name="K" unicode="K" horiz-adv-x="582" 
d="M488 0l-236 412l-113 -117v-295h-79v700h79v-395l374 387h11l-218 -225l266 -467h-84z" />
    <glyph glyph-name="L" unicode="L" horiz-adv-x="453" 
d="M138 7l285 54v-61h-363v700h78v-693z" />
    <glyph glyph-name="M" unicode="M" horiz-adv-x="776" 
d="M646 700h70v-700h-79v670l-275 -478h-9l-286 436v-628h-8v640l-39 60h84l287 -443z" />
    <glyph glyph-name="N" unicode="N" horiz-adv-x="632" 
d="M554 700h8v-700h-15l-476 609v-609h-7v619l-64 81h101l453 -574v574z" />
    <glyph glyph-name="O" unicode="O" horiz-adv-x="788" 
d="M394 710q149 0 261.5 -105.5t112.5 -252.5q0 -146 -112.5 -251.5t-261.5 -105.5q-150 0 -262 105.5t-112 251.5q0 147 112 252.5t262 105.5zM394 3q127 0 208.5 103t81.5 246t-81.5 246t-208.5 103q-128 0 -209 -103t-81 -246t81.5 -246t208.5 -103z" />
    <glyph glyph-name="P" unicode="P" horiz-adv-x="536" 
d="M188 700q153 0 240.5 -51t87.5 -153q0 -103 -87.5 -154t-240.5 -51h-49v-291h-79v700h128zM188 299q249 0 249 197q0 196 -249 196h-49v-393h49z" />
    <glyph glyph-name="Q" unicode="Q" horiz-adv-x="788" 
d="M768 352q0 -94 -50 -175t-132 -129l110 -31v-71l-145 83q-74 -34 -157 -34q-150 0 -262 105.5t-112 251.5q0 147 112 252.5t262 105.5q149 0 261.5 -105.5t112.5 -252.5zM394 3q74 0 136 39l-56 32v6l79 -23q61 48 96 126.5t35 168.5q0 143 -81.5 246t-208.5 103
q-128 0 -209 -103t-81 -246t81.5 -246t208.5 -103z" />
    <glyph glyph-name="R" unicode="R" horiz-adv-x="578" 
d="M352 337l196 -337h-86l-185 325q-15 -1 -46 -1h-92v-324h-79v700h171q126 0 211 -48t85 -140q0 -68 -47.5 -112t-127.5 -63zM231 331q217 0 217 181q0 180 -217 180h-92v-361h92z" />
    <glyph glyph-name="S" unicode="S" horiz-adv-x="573" 
d="M111 581q-3 -40 19 -71t60 -51t84.5 -37t93.5 -36t86.5 -42t64 -60.5t24.5 -85.5q0 -89 -71.5 -146t-178.5 -57q-63 0 -135.5 20.5t-127.5 56.5v136q42 -80 123 -138.5t171 -58.5q72 0 119.5 32.5t54.5 89.5q5 43 -15 75t-57.5 52.5t-83.5 38t-93.5 37t-86.5 43t-64 62.5
t-25 90q0 72 52.5 125.5t162.5 53.5q53 0 109.5 -18t99.5 -46v-104q-50 78 -114.5 116.5t-119.5 38.5q-142 0 -152 -116z" />
    <glyph glyph-name="T" unicode="T" horiz-adv-x="662" 
d="M40 700h582v-62l-252 54v-692h-78v692l-252 -54v62z" />
    <glyph glyph-name="U" unicode="U" horiz-adv-x="634" 
d="M567 700h7v-464q0 -105 -67.5 -173t-172.5 -68q-119 0 -196.5 67t-77.5 197v441h79v-441q0 -125 61 -193.5t169 -59.5q89 7 143.5 74.5t54.5 155.5v464z" />
    <glyph glyph-name="V" unicode="V" horiz-adv-x="554" 
d="M544 700l-218 -614l33 -86h-79l-270 700h79l233 -604l214 604h8z" />
    <glyph glyph-name="W" unicode="W" horiz-adv-x="946" 
d="M936 700l-207 -612l34 -88h-79l-207 537l-152 -449l33 -88h-78l-270 700h79l232 -602l152 449l-59 153h79l232 -602l204 602h7z" />
    <glyph glyph-name="X" unicode="X" horiz-adv-x="623" 
d="M603 0h-87l-237 342l-250 -342h-9l255 349l-243 351h88l206 -299l218 299h10l-224 -305z" />
    <glyph glyph-name="Y" unicode="Y" horiz-adv-x="558" 
d="M548 700l-215 -458v-242h-79v242l-244 458h79l239 -452l212 452h8z" />
    <glyph glyph-name="Z" unicode="Z" horiz-adv-x="557" 
d="M517 700l-410 -692l409 53v-61h-496l409 692l-348 -54v62h436z" />
    <glyph glyph-name="bracketleft" unicode="[" horiz-adv-x="332" 
d="M272 859h-205v-1018h205v-7h-212v1032h212v-7z" />
    <glyph glyph-name="backslash" unicode="\" horiz-adv-x="484" 
d="M68 866l356 -1032h-7l-357 1032h8z" />
    <glyph glyph-name="bracketright" unicode="]" horiz-adv-x="332" 
d="M265 866h7v-1032h-212v7h205v1018h-205v7h205z" />
    <glyph glyph-name="asciicircum" unicode="^" horiz-adv-x="397" 
d="M198 711l139 -161l-5 -5l-134 155l-133 -155l-5 5z" />
    <glyph glyph-name="underscore" unicode="_" horiz-adv-x="505" 
d="M60 -19h385v-8h-385v8z" />
    <glyph glyph-name="grave" unicode="`" horiz-adv-x="295" 
d="M113 724q59 -53 122 -112l-6 -9q-51 19 -149 75q-33 19 -14 46q19 25 47 0z" />
    <glyph glyph-name="a" unicode="a" horiz-adv-x="501" 
d="M269 481q45 0 84.5 -15t68.5 -54t29 -97v-315h-11l-68 140q-15 -61 -59 -103t-114 -42q-73 0 -126 44.5t-53 109.5q0 72 46.5 116.5t106 52t118 -14t81.5 -68.5v93q0 60 -30.5 101.5t-81.5 41.5q-48 0 -82 -24t-46 -65l-7 3q13 43 50 69.5t94 26.5zM221 14q66 0 107 54
t44 124v24q-9 28 -34 49t-56 31t-64.5 7.5t-61.5 -17.5t-46 -48t-18 -80q0 -61 38 -102.5t91 -41.5z" />
    <glyph glyph-name="b" unicode="b" horiz-adv-x="565" 
d="M325 481q87 0 153.5 -69t66.5 -174t-66.5 -174t-153.5 -69q-70 0 -124 46t-72 124l-68 -165h-11v700h79v-388q18 78 72.5 123.5t123.5 45.5zM314 17q62 3 105.5 65t43.5 156q0 93 -43.5 155t-105.5 66q-48 3 -85 -17.5t-58 -55t-31.5 -72.5t-10.5 -76t10.5 -76
t31.5 -72.5t58 -55t85 -17.5z" />
    <glyph glyph-name="c" unicode="c" horiz-adv-x="530" 
d="M504 139l6 -3q-73 -134 -209 -141q-108 -5 -192.5 56t-87.5 176q-2 62 23 112.5t65 80t85.5 45.5t88.5 16q74 0 174 -50v-86q-22 51 -88.5 95t-130.5 30q-44 -10 -77 -43t-47.5 -76t-16.5 -93t15 -95q28 -78 87.5 -118t135.5 -32q105 11 169 126z" />
    <glyph glyph-name="d" unicode="d" horiz-adv-x="565" 
d="M436 700h79v-700h-10l-68 165q-19 -78 -73 -124t-124 -46q-87 0 -153.5 69t-66.5 174t66.5 174t153.5 69q70 0 124 -45.5t72 -123.5v388zM251 17q48 -3 85 17.5t58 55t31.5 72.5t10.5 76t-10.5 76t-31.5 72.5t-58 55t-85 17.5q-62 -4 -105.5 -66t-43.5 -155
q0 -94 43.5 -156t105.5 -65z" />
    <glyph glyph-name="e" unicode="e" 
d="M504 139l7 -3q-75 -134 -210 -141q-108 -5 -192.5 56t-87.5 176q-2 62 23 112t66 79t85.5 45t88.5 18q74 4 139.5 -35.5t75.5 -122.5h-393q-19 -86 7 -160q28 -79 87 -118.5t136 -31.5q104 11 168 126zM238 470q-49 -9 -82 -47t-48 -92h319q-10 68 -64 110t-125 29z" />
    <glyph glyph-name="f" unicode="f" horiz-adv-x="353" 
d="M266 700q-108 0 -108 -143v-76h193v-7h-193v-474h-79v474h-59v7h59v56q0 86 51 129.5t122 43.5q56 0 86 -25t45 -71l-7 -3q-28 89 -110 89z" />
    <glyph glyph-name="g" unicode="g" horiz-adv-x="570" 
d="M580 507v-48l-161 -6q56 -28 89 -78t33 -116q0 -115 -82.5 -189.5t-188.5 -74.5q-39 0 -68 7q-69 8 -125 -39q-32 -26 -35 -60q-2 -32 17 -52q23 -25 70 -25q25 0 56.5 14t51.5 27.5t59 42.5t61.5 44.5t58 30.5t64.5 15q41 0 66.5 -23.5t25.5 -62.5q0 -43 -32 -75
q-45 -45 -127 -45q-41 0 -89.5 22.5t-76.5 47.5q-68 -46 -118 -46q-52 0 -76 27q-22 24 -19 58q2 36 37 67q42 35 100 41q-69 23 -110 76.5t-41 128.5q0 118 82 191.5t189 73.5q59 0 112 -22zM301 -97q-27 -20 -47 -34q28 -24 74 -45t85 -21q79 0 121 42q30 32 29 69
q0 35 -23 56t-60 21q-28 0 -62 -15t-56 -29.5t-61 -43.5zM457 291q-28 94 -94.5 145.5t-148.5 27.5q-55 -16 -87 -60.5t-35.5 -100.5t12.5 -118q27 -95 94 -146t149 -27q55 16 87 60.5t35.5 100.5t-12.5 118z" />
    <glyph glyph-name="h" unicode="h" horiz-adv-x="530" 
d="M470 306q5 -52 16.5 -170.5t13.5 -135.5h-79q-2 19 -14.5 160.5t-14.5 159.5q-7 66 -39.5 110.5t-91.5 32.5q-39 -7 -67.5 -44.5t-41 -90t-18 -96.5t-5.5 -83v-149h-79v700h79v-467q4 38 10.5 69.5t20 66t31.5 58t48 39t67 15.5q65 0 110 -44.5t54 -130.5z" />
    <glyph glyph-name="i" unicode="i" horiz-adv-x="178" 
d="M52 0v481h78v-481h-78zM88 562q-20 0 -33.5 14t-13.5 33t13.5 33t33.5 14t33.5 -14t13.5 -33t-13.5 -33t-33.5 -14z" />
    <glyph glyph-name="j" unicode="j" horiz-adv-x="178" 
d="M50 -14v495h78v-484q0 -62 -15 -107.5t-44.5 -75t-57.5 -46.5t-70 -34l-2 7q47 23 69 47.5t32 69t10 128.5zM86 562q-20 0 -33.5 14t-13.5 33t13.5 33t33.5 14t33.5 -14t13.5 -33t-13.5 -33t-33.5 -14z" />
    <glyph glyph-name="k" unicode="k" horiz-adv-x="485" 
d="M260 330l205 -330h-81l-175 286l-81 -72v-214h-78v700h78v-477l283 251h11z" />
    <glyph glyph-name="l" unicode="l" horiz-adv-x="179" 
d="M50 700h79v-700h-79v700z" />
    <glyph glyph-name="m" unicode="m" horiz-adv-x="796" 
d="M735 305q7 -58 19 -179.5t12 -125.5h-80q0 4 -7 80.5t-13 146.5t-9 93q-4 42 -15 75t-36.5 54.5t-62.5 13.5q-103 -22 -105 -280v-183h-79v320q0 64 -29.5 108.5t-83.5 34.5q-117 -22 -117 -315v-148h-79v473h79v-214q5 45 13.5 80t25.5 69.5t48 53.5t74 19q60 0 102 -48
t46 -128v-11q23 187 150 187q61 0 99.5 -45t47.5 -131z" />
    <glyph glyph-name="n" unicode="n" 
d="M470 306q3 -34 10.5 -109.5t13 -128t7.5 -68.5h-80q0 5 -7 81t-13.5 146t-8.5 93q-7 66 -39.5 110.5t-91.5 32.5q-39 -7 -67.5 -45t-41 -90.5t-18 -96.5t-5.5 -83v-148h-79v474h79v-241q4 38 10.5 69.5t20 66t31.5 58t48 39t67 15.5q65 0 110 -44.5t54 -130.5z" />
    <glyph glyph-name="o" unicode="o" horiz-adv-x="568" 
d="M284 481q102 0 183 -67.5t81 -175.5t-81 -175.5t-183 -67.5t-183 67.5t-81 175.5t81 175.5t183 67.5zM284 3q75 0 128.5 68.5t53.5 166.5t-53.5 166.5t-128.5 68.5t-128.5 -68.5t-53.5 -166.5t53.5 -166.5t128.5 -68.5z" />
    <glyph glyph-name="p" unicode="p" horiz-adv-x="565" 
d="M325 481q87 0 153.5 -69t66.5 -174t-66.5 -174t-153.5 -69q-70 0 -124 45.5t-73 123.5v-388h-78v700h78v-164q19 78 73 123.5t124 45.5zM313 17q62 3 106 65t44 156q0 93 -44 155t-106 66t-106 -33t-61.5 -86.5t-17.5 -101.5t17.5 -101.5t61.5 -86.5t106 -33z" />
    <glyph glyph-name="q" unicode="q" horiz-adv-x="565" 
d="M505 476h10v-700h-79v388q-18 -78 -72 -123.5t-124 -45.5q-87 0 -153.5 69t-66.5 174t66.5 174t153.5 69q70 0 124 -46t73 -124zM251 17q48 -3 85 17.5t58 55t31.5 72.5t10.5 76t-10.5 76t-31.5 72.5t-58 55t-85 17.5q-62 -4 -105.5 -66t-43.5 -155q0 -94 43.5 -156
t105.5 -65z" />
    <glyph glyph-name="r" unicode="r" horiz-adv-x="363" 
d="M266 481q48 0 87 -37v-100q-54 107 -128 97q-93 -14 -96 -282v-159h-79v474h79v-205q18 212 137 212z" />
    <glyph glyph-name="s" unicode="s" horiz-adv-x="414" 
d="M83 394q-4 -37 26.5 -62.5t76.5 -41.5t92 -33t77 -48t28 -76q-5 -62 -50.5 -100t-126.5 -38q-106 0 -186 56v105q29 -58 88.5 -103.5t122.5 -44.5q55 1 86 22t36 58q4 31 -18 52.5t-57 32.5t-76 26t-75.5 31t-55 49t-14.5 79q15 123 153 123q57 0 137 -42v-103
q-23 62 -66.5 100t-87.5 38q-48 0 -77.5 -23.5t-32.5 -56.5z" />
    <glyph glyph-name="t" unicode="t" horiz-adv-x="386" 
d="M349 177h7q0 -182 -134 -182q-67 0 -105 44.5t-38 130.5v304h-59v7h59l68 137h11v-137h117v-7h-117v-318q0 -73 20 -109.5t75 -33.5q47 2 71.5 49t24.5 115z" />
    <glyph glyph-name="u" unicode="u" horiz-adv-x="521" 
d="M392 474h79v-474h-79v243q-29 -248 -177 -248q-73 0 -119 45t-46 130v304h78v-318q0 -70 35 -112.5t96 -30.5q39 7 67.5 44.5t41.5 90t18.5 97t5.5 83.5v146z" />
    <glyph glyph-name="v" unicode="v" horiz-adv-x="434" 
d="M424 481l-163 -404l33 -77h-79l-205 481h79l168 -395l160 395h7z" />
    <glyph glyph-name="w" unicode="w" horiz-adv-x="682" 
d="M672 481l-151 -398l32 -83h-79l-128 335l-83 -264l30 -71h-78l-205 481h78l171 -399l83 264l-52 135h79l148 -388l148 388h7z" />
    <glyph glyph-name="x" unicode="x" horiz-adv-x="511" 
d="M283 273l208 -273h-88l-182 239l-183 -239h-8l187 244l-180 237h87l155 -203l155 203h8z" />
    <glyph glyph-name="y" unicode="y" horiz-adv-x="434" 
d="M417 481h7l-173 -430q-24 -74 -52.5 -118.5t-59.5 -59t-58.5 -14t-63.5 12.5v71q9 -8 31 -15t53 -10t64 14.5t55 56.5l-210 492h79l167 -399z" />
    <glyph glyph-name="z" unicode="z" horiz-adv-x="438" 
d="M418 481l-317 -469l308 28v-40h-399l318 470l-270 -28v39h360z" />
    <glyph glyph-name="braceleft" unicode="{" horiz-adv-x="331" 
d="M151 -115q26 -20 59 -24t57 11l4 -6q-22 -14 -50 -14q-43 0 -75 26q-57 48 -26 129q32 87 36.5 159t-19.5 107q-17 24 -45 24h-32v1v7v1h32q28 0 45 24q24 34 19.5 106.5t-36.5 159.5q-31 81 26 129q27 21 63 24.5t62 -12.5l-4 -7q-24 15 -57.5 11.5t-58.5 -23.5
q-52 -44 -24 -120q33 -88 37.5 -162.5t-20.5 -110.5q-11 -16 -30 -24q18 -6 30 -23q25 -36 20.5 -110.5t-37.5 -163.5q-29 -77 24 -119z" />
    <glyph glyph-name="bar" unicode="|" horiz-adv-x="128" 
d="M60 866h8v-1032h-8v1032z" />
    <glyph glyph-name="braceright" unicode="}" horiz-adv-x="332" 
d="M239 306h33v-1v-7v-1h-33q-29 0 -45 -24q-24 -34 -19 -106.5t37 -159.5q30 -83 -27 -129q-32 -26 -75 -26q-28 0 -50 14l5 6q23 -15 56.5 -11t58.5 24q53 40 24 119q-32 89 -37 163.5t20 110.5q12 17 30 23q-19 8 -30 24q-25 36 -20 110t37 163q29 78 -24 120
q-25 20 -58.5 23.5t-56.5 -11.5l-5 7q26 16 62 12.5t63 -24.5q57 -46 27 -129q-32 -87 -37 -159.5t19 -106.5q16 -24 45 -24z" />
    <glyph glyph-name="asciitilde" unicode="~" horiz-adv-x="615" 
d="M548 316l7 -3q-16 -49 -49.5 -75.5t-78.5 -26.5q-26 0 -52 10t-41 20.5t-39 30.5q-23 18 -33.5 26t-30.5 16.5t-38 8.5q-89 0 -125 -107l-8 2q38 113 133 113q20 0 40.5 -9t31.5 -17t35 -27t38.5 -29t39 -20t49.5 -10q43 0 74.5 25.5t46.5 71.5z" />
    <glyph glyph-name="exclamdown" unicode="&#xa1;" horiz-adv-x="240" 
d="M124 292l56 -527h-120l57 527h7zM120 373q-22 0 -38 15.5t-16 38.5t16 38.5t38 15.5t38 -15.5t16 -38.5t-16 -38.5t-38 -15.5z" />
    <glyph glyph-name="cent" unicode="&#xa2;" horiz-adv-x="611" 
d="M545 250l6 -3q-74 -133 -209 -140h-32v-106h-8v107q-97 7 -167.5 67t-73.5 164q-1 58 20.5 106t58 78t78 47.5t84.5 21.5v107h8v-106h14q76 0 174 -51v-85q-19 43 -74.5 85t-113.5 43v-458q32 -6 66 -3q99 10 169 126zM302 129v456q-16 -2 -24 -4q-44 -10 -77 -42.5
t-47.5 -76t-16 -93t15.5 -94.5q42 -119 149 -146z" />
    <glyph glyph-name="sterling" unicode="&#xa3;" horiz-adv-x="650" 
d="M176 74h414v-74h-489v7q30 23 50.5 48t31.5 46t13.5 49t1.5 47t-9.5 50t-15 48t-19.5 50h-94v7h91q-13 33 -20 53t-16 53.5t-8 54t4 54.5q14 65 82.5 107t149.5 36q149 -10 195 -150l-8 -9q-24 78 -77.5 114t-113.5 35q-66 -1 -108.5 -42t-38.5 -112q3 -48 27 -194h204
v-7h-203q9 -56 10.5 -96t-11.5 -87t-43 -88z" />
    <glyph glyph-name="currency" unicode="&#xa4;" horiz-adv-x="648" 
d="M588 350q0 -107 -82 -177l68 -67l-6 -6l-68 69q-74 -62 -176 -62q-100 0 -176 62l-68 -69l-5 6l67 67q-82 72 -82 177q0 106 82 176l-67 68l5 5l68 -68q77 62 176 62q100 0 176 -62l68 68l6 -5l-68 -68q82 -69 82 -176zM324 115q75 0 128.5 68.5t53.5 166.5t-53.5 166.5
t-128.5 68.5q-74 0 -127.5 -68.5t-53.5 -166.5t53.5 -166.5t127.5 -68.5z" />
    <glyph glyph-name="yen" unicode="&#xa5;" horiz-adv-x="658" 
d="M598 700l-215 -458h155v-7h-155v-73h155v-8h-155v-154h-79v154h-151v8h151v73h-151v7h151l-244 458h79l239 -452l212 452h8z" />
    <glyph glyph-name="brokenbar" unicode="&#xa6;" horiz-adv-x="127" 
d="M60 866h7v-385h-7v385zM60 -166v385h7v-385h-7z" />
    <glyph glyph-name="section" unicode="&#xa7;" horiz-adv-x="654" 
d="M594 326q0 -104 -96 -163q32 -43 32 -100q0 -73 -52.5 -126.5t-162.5 -53.5q-53 0 -110 18.5t-99 46.5v104q50 -78 114.5 -117t119.5 -39q142 0 152 116q4 55 -38.5 92.5t-107 61t-129.5 48.5t-111 70.5t-46 111.5q0 105 97 163q-32 43 -32 101q0 72 52.5 125.5
t162.5 53.5q53 0 110 -18.5t98 -46.5v-103q-50 78 -114 116.5t-120 38.5q-141 0 -151 -116q-5 -55 37.5 -92.5t107 -61t129.5 -48.5t111 -70.5t46 -111.5zM492 171q51 32 58 90q6 49 -21 84.5t-75.5 57.5t-100.5 40.5t-106.5 46.5t-83.5 62q-51 -33 -58 -91q-6 -49 21 -84
t75.5 -57t100.5 -40.5t106.5 -46.5t83.5 -62z" />
    <glyph glyph-name="dieresis" unicode="&#xa8;" horiz-adv-x="392" 
d="M103 662q18 0 31 -13t13 -31t-13 -31t-31 -13t-30.5 13t-12.5 31t12.5 31t30.5 13zM288 662q18 0 31 -13t13 -31t-13 -31t-31 -13t-31 13t-13 31t13 31t31 13z" />
    <glyph glyph-name="copyright" unicode="&#xa9;" horiz-adv-x="792" 
d="M462 124q72 10 111 88l4 -2q-51 -104 -167 -104q-76 0 -132 53.5t-56 128.5t57.5 129t134.5 54q37 0 76 -14t53 -26v-61q-28 49 -79.5 74.5t-101.5 14.5q-63 -14 -88 -78t-3 -134q20 -67 71.5 -100.5t119.5 -22.5zM396 619q139 0 237.5 -98.5t98.5 -237.5t-98.5 -237.5
t-237.5 -98.5t-237.5 98.5t-98.5 237.5t98 237.5t238 98.5zM396 -44q136 0 232 96t96 231q0 136 -96 232t-232 96t-232 -96t-96 -232q0 -135 96 -231t232 -96z" />
    <glyph glyph-name="guillemotleft" unicode="&#xab;" horiz-adv-x="421" 
d="M199 432l5 -5l-133 -134l133 -133l-5 -6l-139 139zM361 427l-133 -134l133 -133l-5 -6l-139 139l139 139z" />
    <glyph glyph-name="registered" unicode="&#xae;" horiz-adv-x="792" 
d="M396 619q139 0 237.5 -98.5t98.5 -237.5t-98.5 -237.5t-237.5 -98.5t-237.5 98.5t-98.5 237.5t98.5 237.5t237.5 98.5zM396 -44q136 0 232 96t96 231q0 136 -96 232t-232 96t-232 -96t-96 -232q0 -135 96 -231t232 -96zM539 370q0 -68 -89 -89l100 -172h-44l-95 166
q-7 -1 -23 -1h-47v-165h-40v357h87q64 0 107.5 -24.5t43.5 -71.5zM388 278q111 0 111 92t-111 92h-47v-184h47z" />
    <glyph glyph-name="macron" unicode="&#xaf;" horiz-adv-x="430" 
d="M60 622h310v-8h-310v8z" />
    <glyph glyph-name="degree" unicode="&#xb0;" horiz-adv-x="283" 
d="M142 572q-34 0 -58 23.5t-24 57.5q0 35 24 58.5t58 23.5t57.5 -24t23.5 -58t-23.5 -57.5t-57.5 -23.5zM142 727q-31 0 -52.5 -21.5t-21.5 -52.5q0 -30 21.5 -51.5t52.5 -21.5q30 0 51.5 21.5t21.5 51.5q0 31 -21.5 52.5t-51.5 21.5z" />
    <glyph glyph-name="plusminus" unicode="&#xb1;" horiz-adv-x="505" 
d="M256 354h189v-8h-189v-189h-7v189h-189v8h189v188h7v-188zM60 71v7h385v-7h-385z" />
    <glyph glyph-name="acute" unicode="&#xb4;" horiz-adv-x="295" 
d="M229 724q19 -27 -14 -46q-98 -56 -149 -75l-6 9q63 59 122 112q28 25 47 0z" />
    <glyph glyph-name="paragraph" unicode="&#xb6;" horiz-adv-x="616" 
d="M236 758h320v-7h-155v-712h-8v712h-149v-712h-8v366q-73 0 -124.5 52t-51.5 125t51.5 124.5t124.5 51.5z" />
    <glyph glyph-name="cedilla" unicode="&#xb8;" horiz-adv-x="294" 
d="M108 -62q47 22 88.5 0t36.5 -68q-3 -28 -30 -48.5t-64 -20.5q-47 0 -79 32l4 6q33 -31 74 -31q49 1 59 60q5 44 -20 62.5t-76 -0.5l-1 3l29 74h6z" />
    <glyph glyph-name="guillemotright" unicode="&#xbb;" horiz-adv-x="422" 
d="M223 432l139 -139l-139 -139l-5 6l133 133l-133 134zM60 427l6 5l139 -139l-139 -139l-6 6l134 133z" />
    <glyph glyph-name="questiondown" unicode="&#xbf;" horiz-adv-x="521" 
d="M322 373q-22 0 -38 15.5t-16 38.5t16 38.5t38 15.5t38 -15.5t16 -38.5t-16 -38.5t-38 -15.5zM284 -224q57 0 104 38.5t67 104.5l6 -4q-50 -149 -199 -149q-84 0 -143 45t-59 127q0 45 26.5 88.5t68 76.5t83 56t80.5 37v96h8v-101q-41 -16 -69.5 -33t-57 -45t-43.5 -70.5
t-15 -97.5q0 -73 39.5 -121t103.5 -48z" />
    <glyph glyph-name="Agrave" unicode="&#xc0;" horiz-adv-x="554" 
d="M465 0l-104 269h-248l-95 -269h-8l218 614l-33 86h79l270 -700h-79zM116 276h242l-126 328zM214 924q59 -53 122 -112l-6 -9q-51 19 -149 75q-33 19 -14 46q19 25 47 0z" />
    <glyph glyph-name="Aacute" unicode="&#xc1;" horiz-adv-x="554" 
d="M465 0l-104 269h-248l-95 -269h-8l218 614l-33 86h79l270 -700h-79zM116 276h242l-126 328zM345 924q19 -27 -14 -46q-98 -56 -149 -75l-6 9q63 59 122 112q28 25 47 0z" />
    <glyph glyph-name="Acircumflex" unicode="&#xc2;" horiz-adv-x="554" 
d="M465 0l-104 269h-248l-95 -269h-8l218 614l-33 86h79l270 -700h-79zM116 276h242l-126 328zM246 906l128 -128l-5 -5l-123 79l-123 -79l-5 5z" />
    <glyph glyph-name="Atilde" unicode="&#xc3;" horiz-adv-x="554" 
d="M465 0l-104 269h-248l-95 -269h-8l218 614l-33 86h79l270 -700h-79zM116 276h242l-126 328zM393 866l8 -2q-29 -89 -86 -89q-33 0 -89.5 20.5t-74.5 20.5q-20 0 -29.5 -9.5t-18.5 -36.5l-8 2q14 43 34.5 64t54.5 21q31 0 82.5 -20.5t79.5 -19.5q17 0 27.5 10.5t19.5 38.5
z" />
    <glyph glyph-name="Adieresis" unicode="&#xc4;" horiz-adv-x="554" 
d="M465 0l-104 269h-248l-95 -269h-8l218 614l-33 86h79l270 -700h-79zM116 276h242l-126 328zM153 862q18 0 31 -13t13 -31t-13 -31t-31 -13t-30.5 13t-12.5 31t12.5 31t30.5 13zM338 862q18 0 31 -13t13 -31t-13 -31t-31 -13t-31 13t-13 31t13 31t31 13z" />
    <glyph glyph-name="Aring" unicode="&#xc5;" horiz-adv-x="554" 
d="M465 0l-104 269h-248l-95 -269h-8l218 614l-33 86h79l270 -700h-79zM116 276h242l-126 328zM241 922q34 0 58 -24t24 -58t-23.5 -58t-58.5 -24q-34 0 -57.5 24t-23.5 58t23.5 58t57.5 24zM241 766q31 0 52.5 21.5t21.5 52.5q0 30 -21.5 51.5t-52.5 21.5
q-30 0 -51.5 -21.5t-21.5 -51.5q0 -31 21.5 -52.5t51.5 -21.5z" />
    <glyph glyph-name="AE" unicode="&#xc6;" horiz-adv-x="830" 
d="M506 7l284 54v-61h-363v269h-239l-170 -269h-8l417 659v41h352v-62l-273 54v-295l252 22v-51l-252 22v-383zM427 276v371l-234 -371h234z" />
    <glyph glyph-name="Ccedilla" unicode="&#xc7;" horiz-adv-x="736" 
d="M389 -5h-14l-22 -57q47 22 88 0t37 -68q-3 -28 -30.5 -48.5t-64.5 -20.5q-45 0 -79 32l4 6q33 -31 74 -31q51 1 59 60q6 44 -19.5 62.5t-75.5 -0.5l-1 3l24 62q-143 8 -246 111.5t-103 245.5q0 97 53 180t140 130.5t184 47.5q74 0 149.5 -27t103.5 -51v-119
q-57 96 -156.5 145.5t-198.5 27.5q-62 -13 -107.5 -55.5t-66 -100t-24 -125.5t18.5 -134q40 -132 141 -197t234 -45q142 22 218 173l7 -4q-98 -203 -327 -203z" />
    <glyph glyph-name="Egrave" unicode="&#xc8;" horiz-adv-x="463" 
d="M139 7l284 54v-61h-363v700h352v-62l-273 54v-295l252 22v-51l-252 22v-383zM199 924q59 -53 122 -112l-6 -9q-51 19 -149 75q-33 19 -14 46q19 25 47 0z" />
    <glyph glyph-name="Eacute" unicode="&#xc9;" horiz-adv-x="463" 
d="M139 7l284 54v-61h-363v700h352v-62l-273 54v-295l252 22v-51l-252 22v-383zM331 924q19 -27 -14 -46q-98 -56 -149 -75l-6 9q63 59 122 112q28 25 47 0z" />
    <glyph glyph-name="Ecircumflex" unicode="&#xca;" horiz-adv-x="463" 
d="M139 7l284 54v-61h-363v700h352v-62l-273 54v-295l252 22v-51l-252 22v-383zM241 906l128 -128l-5 -5l-123 79l-123 -79l-5 5z" />
    <glyph glyph-name="Edieresis" unicode="&#xcb;" horiz-adv-x="463" 
d="M139 7l284 54v-61h-363v700h352v-62l-273 54v-295l252 22v-51l-252 22v-383zM148 862q18 0 31 -13t13 -31t-13 -31t-31 -13t-30.5 13t-12.5 31t12.5 31t30.5 13zM333 862q18 0 31 -13t13 -31t-13 -31t-31 -13t-31 13t-13 31t13 31t31 13z" />
    <glyph glyph-name="Igrave" unicode="&#xcc;" horiz-adv-x="199" 
d="M60 700h79v-700h-79v700zM67 924q59 -53 122 -112l-6 -9q-51 19 -149 75q-33 19 -14 46q19 25 47 0z" />
    <glyph glyph-name="Iacute" unicode="&#xcd;" horiz-adv-x="199" 
d="M60 700h79v-700h-79v700zM179 924q19 -27 -14 -46q-98 -56 -149 -75l-6 9q63 59 122 112q28 25 47 0z" />
    <glyph glyph-name="Icircumflex" unicode="&#xce;" horiz-adv-x="199" 
d="M60 700h79v-700h-79v700zM99 906l128 -128l-5 -5l-123 79l-123 -79l-5 5z" />
    <glyph glyph-name="Idieresis" unicode="&#xcf;" horiz-adv-x="199" 
d="M60 700h79v-700h-79v700zM6 862q18 0 31 -13t13 -31t-13 -31t-31 -13t-30.5 13t-12.5 31t12.5 31t30.5 13zM191 862q18 0 31 -13t13 -31t-13 -31t-31 -13t-31 13t-13 31t13 31t31 13z" />
    <glyph glyph-name="Eth" unicode="&#xd0;" horiz-adv-x="708" 
d="M287 700q173 0 287 -100.5t114 -249.5t-114 -249.5t-287 -100.5h-228v346h-87v8h87v346h228zM287 7q145 0 233.5 100t88.5 243t-88.5 242.5t-233.5 99.5h-149v-338h219v-8h-219v-339h149z" />
    <glyph glyph-name="Ntilde" unicode="&#xd1;" horiz-adv-x="632" 
d="M554 700h8v-700h-15l-476 609v-609h-7v619l-64 81h101l453 -574v574zM479 866l8 -2q-29 -89 -86 -89q-33 0 -89.5 20.5t-74.5 20.5q-20 0 -29.5 -9.5t-18.5 -36.5l-8 2q14 43 34.5 64t54.5 21q31 0 82.5 -20.5t79.5 -19.5q17 0 27.5 10.5t19.5 38.5z" />
    <glyph glyph-name="Ograve" unicode="&#xd2;" horiz-adv-x="788" 
d="M394 710q149 0 261.5 -105.5t112.5 -252.5q0 -146 -112.5 -251.5t-261.5 -105.5q-150 0 -262 105.5t-112 251.5q0 147 112 252.5t262 105.5zM394 3q127 0 208.5 103t81.5 246t-81.5 246t-208.5 103q-128 0 -209 -103t-81 -246t81.5 -246t208.5 -103zM351 924
q59 -53 122 -112l-6 -9q-51 19 -149 75q-33 19 -14 46q19 25 47 0z" />
    <glyph glyph-name="Oacute" unicode="&#xd3;" horiz-adv-x="788" 
d="M394 710q149 0 261.5 -105.5t112.5 -252.5q0 -146 -112.5 -251.5t-261.5 -105.5q-150 0 -262 105.5t-112 251.5q0 147 112 252.5t262 105.5zM394 3q127 0 208.5 103t81.5 246t-81.5 246t-208.5 103q-128 0 -209 -103t-81 -246t81.5 -246t208.5 -103zM493 924
q19 -27 -14 -46q-98 -56 -149 -75l-6 9q63 59 122 112q28 25 47 0z" />
    <glyph glyph-name="Ocircumflex" unicode="&#xd4;" horiz-adv-x="788" 
d="M394 710q149 0 261.5 -105.5t112.5 -252.5q0 -146 -112.5 -251.5t-261.5 -105.5q-150 0 -262 105.5t-112 251.5q0 147 112 252.5t262 105.5zM394 3q127 0 208.5 103t81.5 246t-81.5 246t-208.5 103q-128 0 -209 -103t-81 -246t81.5 -246t208.5 -103zM394 906l128 -128
l-5 -5l-123 79l-123 -79l-5 5z" />
    <glyph glyph-name="Otilde" unicode="&#xd5;" horiz-adv-x="788" 
d="M394 710q149 0 261.5 -105.5t112.5 -252.5q0 -146 -112.5 -251.5t-261.5 -105.5q-150 0 -262 105.5t-112 251.5q0 147 112 252.5t262 105.5zM394 3q127 0 208.5 103t81.5 246t-81.5 246t-208.5 103q-128 0 -209 -103t-81 -246t81.5 -246t208.5 -103zM539 866l8 -2
q-29 -89 -86 -89q-33 0 -89.5 20.5t-74.5 20.5q-20 0 -29.5 -9.5t-18.5 -36.5l-8 2q14 43 34.5 64t54.5 21q31 0 82.5 -20.5t79.5 -19.5q17 0 27.5 10.5t19.5 38.5z" />
    <glyph glyph-name="Odieresis" unicode="&#xd6;" horiz-adv-x="788" 
d="M394 710q149 0 261.5 -105.5t112.5 -252.5q0 -146 -112.5 -251.5t-261.5 -105.5q-150 0 -262 105.5t-112 251.5q0 147 112 252.5t262 105.5zM394 3q127 0 208.5 103t81.5 246t-81.5 246t-208.5 103q-128 0 -209 -103t-81 -246t81.5 -246t208.5 -103zM301 862q18 0 31 -13
t13 -31t-13 -31t-31 -13t-30.5 13t-12.5 31t12.5 31t30.5 13zM486 862q18 0 31 -13t13 -31t-13 -31t-31 -13t-31 13t-13 31t13 31t31 13z" />
    <glyph glyph-name="multiply" unicode="&#xd7;" horiz-adv-x="398" 
d="M338 483l-134 -133l134 -133l-6 -6l-133 134l-134 -134l-5 6l133 133l-133 133l5 6l134 -134l133 134z" />
    <glyph glyph-name="Oslash" unicode="&#xd8;" horiz-adv-x="788" 
d="M653 607q114 -106 114 -255q0 -146 -112 -251.5t-262 -105.5q-143 0 -254 98l-83 -83l-5 5l83 83q-114 106 -114 254q0 147 112 252.5t261 105.5q145 0 254 -98l83 83l6 -6zM104 352q0 -126 63 -221l449 449q-85 121 -223 121q-127 0 -208 -103t-81 -246zM393 3
q127 0 208.5 103t81.5 246q0 125 -63 221l-449 -448q84 -122 222 -122z" />
    <glyph glyph-name="Ugrave" unicode="&#xd9;" horiz-adv-x="634" 
d="M567 700h7v-464q0 -105 -67.5 -173t-172.5 -68q-119 0 -196.5 67t-77.5 197v441h79v-441q0 -125 61 -193.5t169 -59.5q89 7 143.5 74.5t54.5 155.5v464zM314 924q59 -53 122 -112l-6 -9q-51 19 -149 75q-33 19 -14 46q19 25 47 0z" />
    <glyph glyph-name="Uacute" unicode="&#xda;" horiz-adv-x="634" 
d="M567 700h7v-464q0 -105 -67.5 -173t-172.5 -68q-119 0 -196.5 67t-77.5 197v441h79v-441q0 -125 61 -193.5t169 -59.5q89 7 143.5 74.5t54.5 155.5v464zM446 924q19 -27 -14 -46q-98 -56 -149 -75l-6 9q63 59 122 112q28 25 47 0z" />
    <glyph glyph-name="Ucircumflex" unicode="&#xdb;" horiz-adv-x="634" 
d="M567 700h7v-464q0 -105 -67.5 -173t-172.5 -68q-119 0 -196.5 67t-77.5 197v441h79v-441q0 -125 61 -193.5t169 -59.5q89 7 143.5 74.5t54.5 155.5v464zM357 906l128 -128l-5 -5l-123 79l-123 -79l-5 5z" />
    <glyph glyph-name="Udieresis" unicode="&#xdc;" horiz-adv-x="634" 
d="M567 700h7v-464q0 -105 -67.5 -173t-172.5 -68q-119 0 -196.5 67t-77.5 197v441h79v-441q0 -125 61 -193.5t169 -59.5q89 7 143.5 74.5t54.5 155.5v464zM264 862q18 0 31 -13t13 -31t-13 -31t-31 -13t-30.5 13t-12.5 31t12.5 31t30.5 13zM449 862q18 0 31 -13t13 -31
t-13 -31t-31 -13t-31 13t-13 31t13 31t31 13z" />
    <glyph glyph-name="Yacute" unicode="&#xdd;" horiz-adv-x="558" 
d="M548 700l-215 -458v-242h-79v242l-244 458h79l239 -452l212 452h8zM418 924q19 -27 -14 -46q-98 -56 -149 -75l-6 9q63 59 122 112q28 25 47 0z" />
    <glyph glyph-name="Thorn" unicode="&#xde;" horiz-adv-x="575" 
d="M188 554q153 0 240 -50.5t87 -153.5t-87 -153.5t-240 -50.5h-50v-146h-78v700h78v-146h50zM188 153q249 0 249 197t-249 197h-50v-394h50z" />
    <glyph glyph-name="germandbls" unicode="&#xdf;" horiz-adv-x="744" 
d="M422 391q73 17 137.5 -4.5t99 -77t22.5 -129.5q-11 -71 -84.5 -128t-176.5 -57q-125 0 -234 111l7 8q95 -109 221 -109q86 0 134 49t55 120q10 114 -55.5 174.5t-181.5 18.5l-2 7h-1q93 33 133.5 77t31.5 109q-8 58 -57.5 99t-117.5 41q-85 0 -150 -50t-65 -152v-498h-78
v424q0 68 26.5 124t69.5 91t95.5 53.5t106.5 18.5q100 0 171 -47t75 -110q2 -30 -9 -54.5t-25.5 -39.5t-41.5 -29t-45 -20.5t-48 -15.5q-9 -3 -13 -4z" />
    <glyph glyph-name="agrave" unicode="&#xe0;" horiz-adv-x="501" 
d="M269 481q45 0 84.5 -15t68.5 -54t29 -97v-315h-11l-68 140q-15 -61 -59 -103t-114 -42q-73 0 -126 44.5t-53 109.5q0 72 46.5 116.5t106 52t118 -14t81.5 -68.5v93q0 60 -30.5 101.5t-81.5 41.5q-48 0 -82 -24t-46 -65l-7 3q13 43 50 69.5t94 26.5zM221 14q66 0 107 54
t44 124v24q-9 28 -34 49t-56 31t-64.5 7.5t-61.5 -17.5t-46 -48t-18 -80q0 -61 38 -102.5t91 -41.5zM243 694q59 -53 122 -112l-6 -9q-51 19 -149 75q-33 19 -14 46q19 25 47 0z" />
    <glyph glyph-name="aacute" unicode="&#xe1;" horiz-adv-x="501" 
d="M269 481q45 0 84.5 -15t68.5 -54t29 -97v-315h-11l-68 140q-15 -61 -59 -103t-114 -42q-73 0 -126 44.5t-53 109.5q0 72 46.5 116.5t106 52t118 -14t81.5 -68.5v93q0 60 -30.5 101.5t-81.5 41.5q-48 0 -82 -24t-46 -65l-7 3q13 43 50 69.5t94 26.5zM221 14q66 0 107 54
t44 124v24q-9 28 -34 49t-56 31t-64.5 7.5t-61.5 -17.5t-46 -48t-18 -80q0 -61 38 -102.5t91 -41.5zM397 694q19 -27 -14 -46q-98 -56 -149 -75l-6 9q63 59 122 112q28 25 47 0z" />
    <glyph glyph-name="acircumflex" unicode="&#xe2;" horiz-adv-x="501" 
d="M269 481q45 0 84.5 -15t68.5 -54t29 -97v-315h-11l-68 140q-15 -61 -59 -103t-114 -42q-73 0 -126 44.5t-53 109.5q0 72 46.5 116.5t106 52t118 -14t81.5 -68.5v93q0 60 -30.5 101.5t-81.5 41.5q-48 0 -82 -24t-46 -65l-7 3q13 43 50 69.5t94 26.5zM221 14q66 0 107 54
t44 124v24q-9 28 -34 49t-56 31t-64.5 7.5t-61.5 -17.5t-46 -48t-18 -80q0 -61 38 -102.5t91 -41.5zM285 676l128 -128l-5 -5l-123 79l-123 -79l-5 5z" />
    <glyph glyph-name="atilde" unicode="&#xe3;" horiz-adv-x="501" 
d="M269 481q45 0 84.5 -15t68.5 -54t29 -97v-315h-11l-68 140q-15 -61 -59 -103t-114 -42q-73 0 -126 44.5t-53 109.5q0 72 46.5 116.5t106 52t118 -14t81.5 -68.5v93q0 60 -30.5 101.5t-81.5 41.5q-48 0 -82 -24t-46 -65l-7 3q13 43 50 69.5t94 26.5zM221 14q66 0 107 54
t44 124v24q-9 28 -34 49t-56 31t-64.5 7.5t-61.5 -17.5t-46 -48t-18 -80q0 -61 38 -102.5t91 -41.5zM420 636l8 -2q-29 -89 -86 -89q-33 0 -89.5 20.5t-74.5 20.5q-20 0 -29.5 -9.5t-18.5 -36.5l-8 2q14 43 34.5 64t54.5 21q31 0 82.5 -20.5t79.5 -19.5q17 0 27.5 10.5
t19.5 38.5z" />
    <glyph glyph-name="adieresis" unicode="&#xe4;" horiz-adv-x="501" 
d="M269 481q45 0 84.5 -15t68.5 -54t29 -97v-315h-11l-68 140q-15 -61 -59 -103t-114 -42q-73 0 -126 44.5t-53 109.5q0 72 46.5 116.5t106 52t118 -14t81.5 -68.5v93q0 60 -30.5 101.5t-81.5 41.5q-48 0 -82 -24t-46 -65l-7 3q13 43 50 69.5t94 26.5zM221 14q66 0 107 54
t44 124v24q-9 28 -34 49t-56 31t-64.5 7.5t-61.5 -17.5t-46 -48t-18 -80q0 -61 38 -102.5t91 -41.5zM192 632q18 0 31 -13t13 -31t-13 -31t-31 -13t-30.5 13t-12.5 31t12.5 31t30.5 13zM377 632q18 0 31 -13t13 -31t-13 -31t-31 -13t-31 13t-13 31t13 31t31 13z" />
    <glyph glyph-name="aring" unicode="&#xe5;" horiz-adv-x="501" 
d="M269 481q45 0 84.5 -15t68.5 -54t29 -97v-315h-11l-68 140q-15 -61 -59 -103t-114 -42q-73 0 -126 44.5t-53 109.5q0 72 46.5 116.5t106 52t118 -14t81.5 -68.5v93q0 60 -30.5 101.5t-81.5 41.5q-48 0 -82 -24t-46 -65l-7 3q13 43 50 69.5t94 26.5zM221 14q66 0 107 54
t44 124v24q-9 28 -34 49t-56 31t-64.5 7.5t-61.5 -17.5t-46 -48t-18 -80q0 -61 38 -102.5t91 -41.5zM275 692q34 0 58 -24t24 -58t-23.5 -58t-58.5 -24q-34 0 -57.5 24t-23.5 58t23.5 58t57.5 24zM275 536q31 0 52.5 21.5t21.5 52.5q0 30 -21.5 51.5t-52.5 21.5
q-30 0 -51.5 -21.5t-21.5 -51.5q0 -31 21.5 -52.5t51.5 -21.5z" />
    <glyph glyph-name="ae" unicode="&#xe6;" horiz-adv-x="884" 
d="M858 139l6 -4q-74 -133 -209 -140q-97 -4 -177.5 46t-98.5 146q-3 -74 -49 -133t-130 -59q-73 0 -126.5 44t-53.5 110q0 72 46.5 116.5t106 52t118 -14t81.5 -68.5v93q0 60 -30.5 101.5t-81.5 41.5q-48 0 -82 -24t-46 -65l-6 3q13 43 49.5 69.5t93.5 26.5q52 0 98 -22
t68 -68q38 42 93.5 65t108.5 25q74 4 140 -35.5t76 -122.5h-393q-21 -85 6 -160q28 -78 87.5 -118.5t135.5 -32.5q105 12 169 127zM592 470q-49 -9 -82.5 -47t-47.5 -92h318q-9 68 -63 110t-125 29zM372 200v15q-11 34 -43.5 58t-72 29t-77 -5t-62.5 -46.5t-25 -92.5
q0 -61 38.5 -102.5t91.5 -41.5q67 0 108.5 57t41.5 129z" />
    <glyph glyph-name="ccedilla" unicode="&#xe7;" horiz-adv-x="530" 
d="M301 -5h-30l-22 -57q47 22 88.5 0t36.5 -68q-3 -28 -30 -48.5t-64 -20.5q-47 0 -79 32l4 6q33 -31 74 -31q50 1 58 60q6 44 -19 62.5t-76 -0.5l-1 3l25 63q-99 6 -170.5 65.5t-74.5 165.5q-2 62 23 112.5t65.5 80t85.5 45.5t89 16q75 0 173 -50v-86q-21 50 -88 94.5
t-131 30.5q-59 -13 -96.5 -65t-42.5 -115t14 -127q28 -79 87 -119t136 -32q101 11 169 127l6 -3q-75 -134 -210 -141z" />
    <glyph glyph-name="egrave" unicode="&#xe8;" 
d="M504 139l7 -3q-75 -134 -210 -141q-108 -5 -192.5 56t-87.5 176q-2 62 23 112t66 79t85.5 45t88.5 18q74 4 139.5 -35.5t75.5 -122.5h-393q-19 -86 7 -160q28 -79 87 -118.5t136 -31.5q104 11 168 126zM238 470q-49 -9 -82 -47t-48 -92h319q-10 68 -64 110t-125 29z
M243 694q59 -53 122 -112l-6 -9q-51 19 -149 75q-33 19 -14 46q19 25 47 0z" />
    <glyph glyph-name="eacute" unicode="&#xe9;" 
d="M504 139l7 -3q-75 -134 -210 -141q-108 -5 -192.5 56t-87.5 176q-2 62 23 112t66 79t85.5 45t88.5 18q74 4 139.5 -35.5t75.5 -122.5h-393q-19 -86 7 -160q28 -79 87 -118.5t136 -31.5q104 11 168 126zM238 470q-49 -9 -82 -47t-48 -92h319q-10 68 -64 110t-125 29z
M365 694q19 -27 -14 -46q-98 -56 -149 -75l-6 9q63 59 122 112q28 25 47 0z" />
    <glyph glyph-name="ecircumflex" unicode="&#xea;" 
d="M504 139l7 -3q-75 -134 -210 -141q-108 -5 -192.5 56t-87.5 176q-2 62 23 112t66 79t85.5 45t88.5 18q74 4 139.5 -35.5t75.5 -122.5h-393q-19 -86 7 -160q28 -79 87 -118.5t136 -31.5q104 11 168 126zM238 470q-49 -9 -82 -47t-48 -92h319q-10 68 -64 110t-125 29z
M285 676l128 -128l-5 -5l-123 79l-123 -79l-5 5z" />
    <glyph glyph-name="edieresis" unicode="&#xeb;" 
d="M504 139l7 -3q-75 -134 -210 -141q-108 -5 -192.5 56t-87.5 176q-2 62 23 112t66 79t85.5 45t88.5 18q74 4 139.5 -35.5t75.5 -122.5h-393q-19 -86 7 -160q28 -79 87 -118.5t136 -31.5q104 11 168 126zM238 470q-49 -9 -82 -47t-48 -92h319q-10 68 -64 110t-125 29z
M182 632q18 0 31 -13t13 -31t-13 -31t-31 -13t-30.5 13t-12.5 31t12.5 31t30.5 13zM367 632q18 0 31 -13t13 -31t-13 -31t-31 -13t-31 13t-13 31t13 31t31 13z" />
    <glyph glyph-name="igrave" unicode="&#xec;" horiz-adv-x="178" 
d="M50 0v481h78v-481h-78zM57 694q59 -53 122 -112l-6 -9q-51 19 -149 75q-33 19 -14 46q19 25 47 0z" />
    <glyph glyph-name="iacute" unicode="&#xed;" horiz-adv-x="178" 
d="M50 0v481h78v-481h-78zM169 694q19 -27 -14 -46q-98 -56 -149 -75l-6 9q63 59 122 112q28 25 47 0z" />
    <glyph glyph-name="icircumflex" unicode="&#xee;" horiz-adv-x="178" 
d="M50 0v481h78v-481h-78zM89 676l128 -128l-5 -5l-123 79l-123 -79l-5 5z" />
    <glyph glyph-name="idieresis" unicode="&#xef;" horiz-adv-x="178" 
d="M50 0v481h78v-481h-78zM-4 632q18 0 31 -13t13 -31t-13 -31t-31 -13t-30.5 13t-12.5 31t12.5 31t30.5 13zM181 632q18 0 31 -13t13 -31t-13 -31t-31 -13t-31 13t-13 31t13 31t31 13z" />
    <glyph glyph-name="eth" unicode="&#xf0;" horiz-adv-x="542" 
d="M371 653q71 -55 111 -150.5t40 -201.5q0 -80 -23 -141.5t-62 -96t-84 -51.5t-94 -17q-105 0 -172 70t-67 169t66 161.5t153 62.5q83 0 139 -48.5t74 -112.5q0 100 -24.5 194.5t-79.5 150.5l-157 -77v10l150 74q-56 53 -134 53q-37 0 -76 -14.5t-58 -38.5l-5 5
q21 28 60.5 42t78.5 14q86 0 156 -51l115 57v-10zM264 5q95 0 141.5 72t46.5 192q-7 59 -61.5 118t-134.5 59q-72 0 -120 -64t-48 -158t45 -156.5t131 -62.5z" />
    <glyph glyph-name="ntilde" unicode="&#xf1;" 
d="M470 306q3 -34 10.5 -109.5t13 -128t7.5 -68.5h-80q0 5 -7 81t-13.5 146t-8.5 93q-7 66 -39.5 110.5t-91.5 32.5q-39 -7 -67.5 -45t-41 -90.5t-18 -96.5t-5.5 -83v-148h-79v474h79v-241q4 38 10.5 69.5t20 66t31.5 58t48 39t67 15.5q65 0 110 -44.5t54 -130.5zM420 636
l8 -2q-29 -89 -86 -89q-33 0 -89.5 20.5t-74.5 20.5q-20 0 -29.5 -9.5t-18.5 -36.5l-8 2q14 43 34.5 64t54.5 21q31 0 82.5 -20.5t79.5 -19.5q17 0 27.5 10.5t19.5 38.5z" />
    <glyph glyph-name="ograve" unicode="&#xf2;" horiz-adv-x="568" 
d="M284 481q102 0 183 -67.5t81 -175.5t-81 -175.5t-183 -67.5t-183 67.5t-81 175.5t81 175.5t183 67.5zM284 3q75 0 128.5 68.5t53.5 166.5t-53.5 166.5t-128.5 68.5t-128.5 -68.5t-53.5 -166.5t53.5 -166.5t128.5 -68.5zM241 694q59 -53 122 -112l-6 -9q-51 19 -149 75
q-33 19 -14 46q19 25 47 0z" />
    <glyph glyph-name="oacute" unicode="&#xf3;" horiz-adv-x="568" 
d="M284 481q102 0 183 -67.5t81 -175.5t-81 -175.5t-183 -67.5t-183 67.5t-81 175.5t81 175.5t183 67.5zM284 3q75 0 128.5 68.5t53.5 166.5t-53.5 166.5t-128.5 68.5t-128.5 -68.5t-53.5 -166.5t53.5 -166.5t128.5 -68.5zM383 694q19 -27 -14 -46q-98 -56 -149 -75l-6 9
q63 59 122 112q28 25 47 0z" />
    <glyph glyph-name="ocircumflex" unicode="&#xf4;" horiz-adv-x="568" 
d="M284 481q102 0 183 -67.5t81 -175.5t-81 -175.5t-183 -67.5t-183 67.5t-81 175.5t81 175.5t183 67.5zM284 3q75 0 128.5 68.5t53.5 166.5t-53.5 166.5t-128.5 68.5t-128.5 -68.5t-53.5 -166.5t53.5 -166.5t128.5 -68.5zM284 676l128 -128l-5 -5l-123 79l-123 -79l-5 5z
" />
    <glyph glyph-name="otilde" unicode="&#xf5;" horiz-adv-x="568" 
d="M284 481q102 0 183 -67.5t81 -175.5t-81 -175.5t-183 -67.5t-183 67.5t-81 175.5t81 175.5t183 67.5zM284 3q75 0 128.5 68.5t53.5 166.5t-53.5 166.5t-128.5 68.5t-128.5 -68.5t-53.5 -166.5t53.5 -166.5t128.5 -68.5zM429 636l8 -2q-29 -89 -86 -89q-33 0 -89.5 20.5
t-74.5 20.5q-20 0 -29.5 -9.5t-18.5 -36.5l-8 2q14 43 34.5 64t54.5 21q31 0 82.5 -20.5t79.5 -19.5q17 0 27.5 10.5t19.5 38.5z" />
    <glyph glyph-name="odieresis" unicode="&#xf6;" horiz-adv-x="568" 
d="M284 481q102 0 183 -67.5t81 -175.5t-81 -175.5t-183 -67.5t-183 67.5t-81 175.5t81 175.5t183 67.5zM284 3q75 0 128.5 68.5t53.5 166.5t-53.5 166.5t-128.5 68.5t-128.5 -68.5t-53.5 -166.5t53.5 -166.5t128.5 -68.5zM191 632q18 0 31 -13t13 -31t-13 -31t-31 -13
t-30.5 13t-12.5 31t12.5 31t30.5 13zM376 632q18 0 31 -13t13 -31t-13 -31t-31 -13t-31 13t-13 31t13 31t31 13z" />
    <glyph glyph-name="divide" unicode="&#xf7;" horiz-adv-x="505" 
d="M252 481q-17 0 -29 12.5t-12 29.5t12 29.5t29 12.5q18 0 30 -12.5t12 -29.5t-12 -29.5t-30 -12.5zM252 219q18 0 30 -12.5t12 -29.5t-12 -29.5t-30 -12.5q-17 0 -29 12.5t-12 29.5t12 29.5t29 12.5zM60 354h385v-8h-385v8z" />
    <glyph glyph-name="oslash" unicode="&#xf8;" horiz-adv-x="568" 
d="M466 414q82 -70 82 -176q0 -73 -40 -130t-99.5 -85t-124.5 -28q-100 0 -176 61l-82 -82l-6 6l82 81q-82 70 -82 177q0 108 81 175.5t183 67.5q98 0 176 -62l82 82l5 -5zM102 238q0 -76 36 -140l287 287q-25 41 -62 64.5t-79 23.5q-75 0 -128.5 -68.5t-53.5 -166.5zM284 3
q74 0 127.5 68.5t53.5 166.5q0 79 -36 140l-287 -287q55 -88 142 -88z" />
    <glyph glyph-name="ugrave" unicode="&#xf9;" horiz-adv-x="521" 
d="M392 474h79v-474h-79v243q-29 -248 -177 -248q-73 0 -119 45t-46 130v304h78v-318q0 -70 35 -112.5t96 -30.5q39 7 67.5 44.5t41.5 90t18.5 97t5.5 83.5v146zM218 694q59 -53 122 -112l-6 -9q-51 19 -149 75q-33 19 -14 46q19 25 47 0z" />
    <glyph glyph-name="uacute" unicode="&#xfa;" horiz-adv-x="521" 
d="M392 474h79v-474h-79v243q-29 -248 -177 -248q-73 0 -119 45t-46 130v304h78v-318q0 -70 35 -112.5t96 -30.5q39 7 67.5 44.5t41.5 90t18.5 97t5.5 83.5v146zM370 694q19 -27 -14 -46q-98 -56 -149 -75l-6 9q63 59 122 112q28 25 47 0z" />
    <glyph glyph-name="ucircumflex" unicode="&#xfb;" horiz-adv-x="521" 
d="M392 474h79v-474h-79v243q-29 -248 -177 -248q-73 0 -119 45t-46 130v304h78v-318q0 -70 35 -112.5t96 -30.5q39 7 67.5 44.5t41.5 90t18.5 97t5.5 83.5v146zM270 676l128 -128l-5 -5l-123 79l-123 -79l-5 5z" />
    <glyph glyph-name="udieresis" unicode="&#xfc;" horiz-adv-x="521" 
d="M392 474h79v-474h-79v243q-29 -248 -177 -248q-73 0 -119 45t-46 130v304h78v-318q0 -70 35 -112.5t96 -30.5q39 7 67.5 44.5t41.5 90t18.5 97t5.5 83.5v146zM177 632q18 0 31 -13t13 -31t-13 -31t-31 -13t-30.5 13t-12.5 31t12.5 31t30.5 13zM362 632q18 0 31 -13
t13 -31t-13 -31t-31 -13t-31 13t-13 31t13 31t31 13z" />
    <glyph glyph-name="yacute" unicode="&#xfd;" horiz-adv-x="434" 
d="M417 481h7l-173 -430q-24 -74 -52.5 -118.5t-59.5 -59t-58.5 -14t-63.5 12.5v71q9 -8 31 -15t53 -10t64 14.5t55 56.5l-210 492h79l167 -399zM346 694q19 -27 -14 -46q-98 -56 -149 -75l-6 9q63 59 122 112q28 25 47 0z" />
    <glyph glyph-name="thorn" unicode="&#xfe;" horiz-adv-x="616" 
d="M336 481q86 0 153 -69t67 -174t-67 -174t-153 -69q-70 0 -124 45.5t-73 123.5v-388h-79v924h79v-388q19 78 73 123.5t124 45.5zM324 17q62 3 105.5 65t43.5 156q0 93 -43.5 155t-105.5 66t-106 -33t-61.5 -86.5t-17.5 -101.5t17.5 -101.5t61.5 -86.5t106 -33z" />
    <glyph glyph-name="ydieresis" unicode="&#xff;" horiz-adv-x="434" 
d="M417 481h7l-173 -430q-24 -74 -52.5 -118.5t-59.5 -59t-58.5 -14t-63.5 12.5v71q9 -8 31 -15t53 -10t64 14.5t55 56.5l-210 492h79l167 -399zM154 632q18 0 31 -13t13 -31t-13 -31t-31 -13t-30.5 13t-12.5 31t12.5 31t30.5 13zM339 632q18 0 31 -13t13 -31t-13 -31
t-31 -13t-31 13t-13 31t13 31t31 13z" />
    <glyph glyph-name="Amacron" unicode="&#x100;" horiz-adv-x="554" 
d="M465 0l-104 269h-248l-95 -269h-8l218 614l-33 86h79l270 -700h-79zM116 276h242l-126 328zM92 822h310v-8h-310v8z" />
    <glyph glyph-name="amacron" unicode="&#x101;" horiz-adv-x="501" 
d="M269 481q45 0 84.5 -15t68.5 -54t29 -97v-315h-11l-68 140q-15 -61 -59 -103t-114 -42q-73 0 -126 44.5t-53 109.5q0 72 46.5 116.5t106 52t118 -14t81.5 -68.5v93q0 60 -30.5 101.5t-81.5 41.5q-48 0 -82 -24t-46 -65l-7 3q13 43 50 69.5t94 26.5zM221 14q66 0 107 54
t44 124v24q-9 28 -34 49t-56 31t-64.5 7.5t-61.5 -17.5t-46 -48t-18 -80q0 -61 38 -102.5t91 -41.5zM120 592h310v-8h-310v8z" />
    <glyph glyph-name="Abreve" unicode="&#x102;" horiz-adv-x="554" 
d="M465 0l-104 269h-248l-95 -269h-8l218 614l-33 86h79l270 -700h-79zM116 276h242l-126 328zM356 905h6q-4 -57 -34.5 -90t-81.5 -33t-81.5 33t-34.5 90h7q21 -78 109 -78t110 78z" />
    <glyph glyph-name="abreve" unicode="&#x103;" horiz-adv-x="501" 
d="M269 481q45 0 84.5 -15t68.5 -54t29 -97v-315h-11l-68 140q-15 -61 -59 -103t-114 -42q-73 0 -126 44.5t-53 109.5q0 72 46.5 116.5t106 52t118 -14t81.5 -68.5v93q0 60 -30.5 101.5t-81.5 41.5q-48 0 -82 -24t-46 -65l-7 3q13 43 50 69.5t94 26.5zM221 14q66 0 107 54
t44 124v24q-9 28 -34 49t-56 31t-64.5 7.5t-61.5 -17.5t-46 -48t-18 -80q0 -61 38 -102.5t91 -41.5zM395 675h6q-4 -57 -34.5 -90t-81.5 -33t-81.5 33t-34.5 90h7q21 -78 109 -78t110 78z" />
    <glyph glyph-name="Aogonek" unicode="&#x104;" horiz-adv-x="554" 
d="M560 -144l5 -6q-23 -25 -41 -34q-34 -17 -67 -10.5t-48 29.5q-23 36 1 87t74 78h-20l-103 269h-248l-96 -269h-7l218 614l-34 86h79l270 -700h-46q-45 -23 -62 -70t7 -80q29 -40 80 -23q17 6 38 29zM115 276h243l-126 328z" />
    <glyph glyph-name="aogonek" unicode="&#x105;" horiz-adv-x="501" 
d="M501 -144l4 -6q-23 -25 -40 -34q-35 -16 -67.5 -10t-48.5 29q-25 38 4 92t84 78l-66 135q-15 -62 -58.5 -103.5t-113.5 -41.5q-73 0 -126 44t-53 110q0 72 46.5 116.5t106 52t118 -14t81.5 -68.5v93q0 60 -30.5 101.5t-81.5 41.5q-48 0 -82 -24t-46 -65l-7 3
q13 43 49.5 69.5t94.5 26.5q72 0 126.5 -40.5t54.5 -125.5v-315h-10q-46 -23 -64 -70t6 -80q28 -39 81 -23q14 5 38 29zM372 200v15q-11 34 -43.5 58t-72 29t-77 -5t-63 -46.5t-25.5 -92.5q0 -61 38.5 -102.5t91.5 -41.5q68 0 109.5 57t41.5 129z" />
    <glyph glyph-name="Cacute" unicode="&#x106;" horiz-adv-x="736" 
d="M709 202l7 -4q-98 -203 -327 -203q-149 0 -259 105t-110 252q0 97 53 180t140 130.5t184 47.5q74 0 150 -27.5t103 -50.5v-119q-57 96 -156.5 145.5t-198.5 27.5q-62 -13 -107.5 -55.5t-66 -100t-24 -125.5t18.5 -134q40 -132 141 -197t234 -45q142 22 218 173zM460 924
q19 -27 -14 -46q-98 -56 -149 -75l-6 9q63 59 122 112q28 25 47 0z" />
    <glyph glyph-name="cacute" unicode="&#x107;" horiz-adv-x="530" 
d="M504 139l6 -3q-73 -134 -209 -141q-108 -5 -192.5 56t-87.5 176q-2 62 23 112.5t65 80t85.5 45.5t88.5 16q74 0 174 -50v-86q-22 51 -88.5 95t-130.5 30q-44 -10 -77 -43t-47.5 -76t-16.5 -93t15 -95q28 -78 87.5 -118t135.5 -32q105 11 169 126zM374 694q19 -27 -14 -46
q-98 -56 -149 -75l-6 9q63 59 122 112q28 25 47 0z" />
    <glyph glyph-name="Ccircumflex" unicode="&#x108;" horiz-adv-x="736" 
d="M709 202l7 -4q-98 -203 -327 -203q-149 0 -259 105t-110 252q0 97 53 180t140 130.5t184 47.5q74 0 150 -27.5t103 -50.5v-119q-57 96 -156.5 145.5t-198.5 27.5q-62 -13 -107.5 -55.5t-66 -100t-24 -125.5t18.5 -134q40 -132 141 -197t234 -45q142 22 218 173zM378 906
l128 -128l-5 -5l-123 79l-123 -79l-5 5z" />
    <glyph glyph-name="ccircumflex" unicode="&#x109;" horiz-adv-x="530" 
d="M504 139l6 -3q-73 -134 -209 -141q-108 -5 -192.5 56t-87.5 176q-2 62 23 112.5t65 80t85.5 45.5t88.5 16q74 0 174 -50v-86q-22 51 -88.5 95t-130.5 30q-44 -10 -77 -43t-47.5 -76t-16.5 -93t15 -95q28 -78 87.5 -118t135.5 -32q105 11 169 126zM275 676l128 -128l-5 -5
l-123 79l-123 -79l-5 5z" />
    <glyph glyph-name="Cdotaccent" unicode="&#x10a;" horiz-adv-x="736" 
d="M709 202l7 -4q-98 -203 -327 -203q-149 0 -259 105t-110 252q0 97 53 180t140 130.5t184 47.5q74 0 150 -27.5t103 -50.5v-119q-57 96 -156.5 145.5t-198.5 27.5q-62 -13 -107.5 -55.5t-66 -100t-24 -125.5t18.5 -134q40 -132 141 -197t234 -45q142 22 218 173zM367 862
q19 0 31.5 -13t12.5 -31t-12.5 -31t-31.5 -13q-18 0 -30.5 13t-12.5 31t12.5 31t30.5 13z" />
    <glyph glyph-name="cdotaccent" unicode="&#x10b;" horiz-adv-x="530" 
d="M504 139l6 -3q-73 -134 -209 -141q-108 -5 -192.5 56t-87.5 176q-2 62 23 112.5t65 80t85.5 45.5t88.5 16q74 0 174 -50v-86q-22 51 -88.5 95t-130.5 30q-44 -10 -77 -43t-47.5 -76t-16.5 -93t15 -95q28 -78 87.5 -118t135.5 -32q105 11 169 126zM274 632q19 0 31.5 -13
t12.5 -31t-12.5 -31t-31.5 -13q-18 0 -30.5 13t-12.5 31t12.5 31t30.5 13z" />
    <glyph glyph-name="Ccaron" unicode="&#x10c;" horiz-adv-x="736" 
d="M709 202l7 -4q-98 -203 -327 -203q-149 0 -259 105t-110 252q0 97 53 180t140 130.5t184 47.5q74 0 150 -27.5t103 -50.5v-119q-57 96 -156.5 145.5t-198.5 27.5q-62 -13 -107.5 -55.5t-66 -100t-24 -125.5t18.5 -134q40 -132 141 -197t234 -45q142 22 218 173zM500 906
l6 -5l-128 -128l-128 128l5 5l123 -79z" />
    <glyph glyph-name="ccaron" unicode="&#x10d;" horiz-adv-x="530" 
d="M504 139l6 -3q-73 -134 -209 -141q-108 -5 -192.5 56t-87.5 176q-2 62 23 112.5t65 80t85.5 45.5t88.5 16q74 0 174 -50v-86q-22 51 -88.5 95t-130.5 30q-44 -10 -77 -43t-47.5 -76t-16.5 -93t15 -95q28 -78 87.5 -118t135.5 -32q105 11 169 126zM397 676l6 -5l-128 -128
l-128 128l5 5l123 -79z" />
    <glyph glyph-name="Dcaron" unicode="&#x10e;" horiz-adv-x="708" 
d="M287 700q173 0 287 -100.5t114 -249.5t-114 -249.5t-287 -100.5h-227v700h227zM287 7q146 0 234.5 99.5t88.5 243.5q0 143 -88.5 242.5t-234.5 99.5h-149v-685h149zM436 906l6 -5l-128 -128l-128 128l5 5l123 -79z" />
    <glyph glyph-name="dcaron" unicode="&#x10f;" horiz-adv-x="644" 
d="M436 700h79v-700h-10l-68 165q-19 -78 -73 -124t-124 -46q-87 0 -153.5 69t-66.5 174t66.5 174t153.5 69q70 0 124 -45.5t72 -123.5v388zM251 17q48 -3 85 17.5t58 55t31.5 72.5t10.5 76t-10.5 76t-31.5 72.5t-58 55t-85 17.5q-62 -4 -105.5 -66t-43.5 -155
q0 -94 43.5 -156t105.5 -65zM649 711q22 0 38.5 -16t16.5 -38q0 -76 -90 -148l-5 5q61 54 77 103q-17 -15 -37 -15q-22 0 -38 16.5t-16 38.5t16 38t38 16z" />
    <glyph glyph-name="Dcroat" unicode="&#x110;" horiz-adv-x="708" 
d="M287 700q173 0 287 -100.5t114 -249.5t-114 -249.5t-287 -100.5h-228v346h-87v8h87v346h228zM287 7q145 0 233.5 100t88.5 243t-88.5 242.5t-233.5 99.5h-149v-338h219v-8h-219v-339h149z" />
    <glyph glyph-name="dcroat" unicode="&#x111;" horiz-adv-x="565" 
d="M515 564h92v-7h-92v-557h-10l-68 165q-18 -78 -72.5 -124t-124.5 -46q-87 0 -153.5 69t-66.5 174t66.5 174t153.5 69q70 0 124 -45.5t72 -123.5v27v218h-214v7h214v136h79v-136zM251 17q48 -3 85 17.5t58 55t31.5 72.5t10.5 76t-10.5 76t-31.5 72.5t-58 55t-85 17.5
q-62 -4 -105.5 -66t-43.5 -155q0 -94 43.5 -156t105.5 -65z" />
    <glyph glyph-name="Emacron" unicode="&#x112;" horiz-adv-x="463" 
d="M139 7l284 54v-61h-363v700h352v-62l-273 54v-295l252 22v-51l-252 22v-383zM86 822h310v-8h-310v8z" />
    <glyph glyph-name="emacron" unicode="&#x113;" 
d="M504 139l7 -3q-75 -134 -210 -141q-108 -5 -192.5 56t-87.5 176q-2 62 23 112t66 79t85.5 45t88.5 18q74 4 139.5 -35.5t75.5 -122.5h-393q-19 -86 7 -160q28 -79 87 -118.5t136 -31.5q104 11 168 126zM238 470q-49 -9 -82 -47t-48 -92h319q-10 68 -64 110t-125 29z
M120 592h310v-8h-310v8z" />
    <glyph glyph-name="Ebreve" unicode="&#x114;" horiz-adv-x="463" 
d="M139 7l284 54v-61h-363v700h352v-62l-273 54v-295l252 22v-51l-252 22v-383zM351 905h6q-4 -57 -34.5 -90t-81.5 -33t-81.5 33t-34.5 90h7q21 -78 109 -78t110 78z" />
    <glyph glyph-name="ebreve" unicode="&#x115;" 
d="M504 139l7 -3q-75 -134 -210 -141q-108 -5 -192.5 56t-87.5 176q-2 62 23 112t66 79t85.5 45t88.5 18q74 4 139.5 -35.5t75.5 -122.5h-393q-19 -86 7 -160q28 -79 87 -118.5t136 -31.5q104 11 168 126zM238 470q-49 -9 -82 -47t-48 -92h319q-10 68 -64 110t-125 29z
M385 675h6q-4 -57 -34.5 -90t-81.5 -33t-81.5 33t-34.5 90h7q21 -78 109 -78t110 78z" />
    <glyph glyph-name="Edotaccent" unicode="&#x116;" horiz-adv-x="463" 
d="M139 7l284 54v-61h-363v700h352v-62l-273 54v-295l252 22v-51l-252 22v-383zM241 862q19 0 31.5 -13t12.5 -31t-12.5 -31t-31.5 -13q-18 0 -30.5 13t-12.5 31t12.5 31t30.5 13z" />
    <glyph glyph-name="edotaccent" unicode="&#x117;" 
d="M504 139l7 -3q-75 -134 -210 -141q-108 -5 -192.5 56t-87.5 176q-2 62 23 112t66 79t85.5 45t88.5 18q74 4 139.5 -35.5t75.5 -122.5h-393q-19 -86 7 -160q28 -79 87 -118.5t136 -31.5q104 11 168 126zM238 470q-49 -9 -82 -47t-48 -92h319q-10 68 -64 110t-125 29z
M275 632q19 0 31.5 -13t12.5 -31t-12.5 -31t-31.5 -13q-18 0 -30.5 13t-12.5 31t12.5 31t30.5 13z" />
    <glyph glyph-name="Eogonek" unicode="&#x118;" horiz-adv-x="463" 
d="M433 -144l4 -6q-23 -25 -41 -34q-34 -17 -67 -10.5t-48 29.5q-24 36 0.5 87t75.5 78h-297v700h353v-62l-274 54v-295l252 22v-51l-252 22v-383l284 54v-61h-53q-46 -23 -62.5 -70t6.5 -80q29 -40 80 -23q15 5 39 29z" />
    <glyph glyph-name="eogonek" unicode="&#x119;" 
d="M510 136q-58 -105 -154 -132q-49 -21 -68.5 -70.5t5.5 -83.5q27 -40 80 -23q14 5 38 29l4 -6q-19 -23 -40 -34q-35 -16 -67.5 -10t-48.5 29q-23 35 1 86t73 78q-10 -2 -32 -4q-68 -3 -129.5 20t-105 78.5t-45.5 133.5q-2 62 23 112t65.5 79t85 45t88.5 18q74 4 140 -35.5
t76 -122.5h-393q-21 -85 6 -160q28 -78 87.5 -118.5t135.5 -32.5q105 12 169 127zM238 470q-49 -9 -82.5 -47t-47.5 -92h319q-10 68 -64 110t-125 29z" />
    <glyph glyph-name="Ecaron" unicode="&#x11a;" horiz-adv-x="463" 
d="M139 7l284 54v-61h-363v700h352v-62l-273 54v-295l252 22v-51l-252 22v-383zM363 906l6 -5l-128 -128l-128 128l5 5l123 -79z" />
    <glyph glyph-name="ecaron" unicode="&#x11b;" 
d="M504 139l7 -3q-75 -134 -210 -141q-108 -5 -192.5 56t-87.5 176q-2 62 23 112t66 79t85.5 45t88.5 18q74 4 139.5 -35.5t75.5 -122.5h-393q-19 -86 7 -160q28 -79 87 -118.5t136 -31.5q104 11 168 126zM238 470q-49 -9 -82 -47t-48 -92h319q-10 68 -64 110t-125 29z
M397 676l6 -5l-128 -128l-128 128l5 5l123 -79z" />
    <glyph glyph-name="Gcircumflex" unicode="&#x11c;" horiz-adv-x="756" 
d="M617 333h79v-175q-12 -25 -35 -50.5t-60.5 -52t-96 -43.5t-127.5 -17q-148 0 -252.5 104.5t-104.5 252.5q0 147 113.5 252.5t263.5 105.5q74 0 149.5 -27t102.5 -51v-119q-56 96 -156 145.5t-198 27.5q-62 -13 -107.5 -55.5t-66 -100t-24 -125.5t18.5 -134
q41 -135 136 -202.5t227 -50.5q82 11 138 72v243zM368 906l128 -128l-5 -5l-123 79l-123 -79l-5 5z" />
    <glyph glyph-name="gcircumflex" unicode="&#x11d;" horiz-adv-x="570" 
d="M580 507v-48l-161 -6q56 -28 89 -78t33 -116q0 -115 -82.5 -189.5t-188.5 -74.5q-39 0 -68 7q-69 8 -125 -39q-32 -26 -35 -60q-2 -32 17 -52q23 -25 70 -25q25 0 56.5 14t51.5 27.5t59 42.5t61.5 44.5t58 30.5t64.5 15q41 0 66.5 -23.5t25.5 -62.5q0 -43 -32 -75
q-45 -45 -127 -45q-41 0 -89.5 22.5t-76.5 47.5q-68 -46 -118 -46q-52 0 -76 27q-22 24 -19 58q2 36 37 67q42 35 100 41q-69 23 -110 76.5t-41 128.5q0 118 82 191.5t189 73.5q59 0 112 -22zM301 -97q-27 -20 -47 -34q28 -24 74 -45t85 -21q79 0 121 42q30 32 29 69
q0 35 -23 56t-60 21q-28 0 -62 -15t-56 -29.5t-61 -43.5zM457 291q-28 94 -94.5 145.5t-148.5 27.5q-55 -16 -87 -60.5t-35.5 -100.5t12.5 -118q27 -95 94 -146t149 -27q55 16 87 60.5t35.5 100.5t-12.5 118zM290 676l128 -128l-5 -5l-123 79l-123 -79l-5 5z" />
    <glyph glyph-name="Gbreve" unicode="&#x11e;" horiz-adv-x="756" 
d="M617 333h79v-175q-12 -25 -35 -50.5t-60.5 -52t-96 -43.5t-127.5 -17q-148 0 -252.5 104.5t-104.5 252.5q0 147 113.5 252.5t263.5 105.5q74 0 149.5 -27t102.5 -51v-119q-56 96 -156 145.5t-198 27.5q-62 -13 -107.5 -55.5t-66 -100t-24 -125.5t18.5 -134
q41 -135 136 -202.5t227 -50.5q82 11 138 72v243zM478 905h6q-4 -57 -34.5 -90t-81.5 -33t-81.5 33t-34.5 90h7q21 -78 109 -78t110 78z" />
    <glyph glyph-name="gbreve" unicode="&#x11f;" horiz-adv-x="570" 
d="M580 507v-48l-161 -6q56 -28 89 -78t33 -116q0 -115 -82.5 -189.5t-188.5 -74.5q-39 0 -68 7q-69 8 -125 -39q-32 -26 -35 -60q-2 -32 17 -52q23 -25 70 -25q25 0 56.5 14t51.5 27.5t59 42.5t61.5 44.5t58 30.5t64.5 15q41 0 66.5 -23.5t25.5 -62.5q0 -43 -32 -75
q-45 -45 -127 -45q-41 0 -89.5 22.5t-76.5 47.5q-68 -46 -118 -46q-52 0 -76 27q-22 24 -19 58q2 36 37 67q42 35 100 41q-69 23 -110 76.5t-41 128.5q0 118 82 191.5t189 73.5q59 0 112 -22zM301 -97q-27 -20 -47 -34q28 -24 74 -45t85 -21q79 0 121 42q30 32 29 69
q0 35 -23 56t-60 21q-28 0 -62 -15t-56 -29.5t-61 -43.5zM457 291q-28 94 -94.5 145.5t-148.5 27.5q-55 -16 -87 -60.5t-35.5 -100.5t12.5 -118q27 -95 94 -146t149 -27q55 16 87 60.5t35.5 100.5t-12.5 118zM400 675h6q-4 -57 -34.5 -90t-81.5 -33t-81.5 33t-34.5 90h7
q21 -78 109 -78t110 78z" />
    <glyph glyph-name="Gdotaccent" unicode="&#x120;" horiz-adv-x="756" 
d="M617 333h79v-175q-12 -25 -35 -50.5t-60.5 -52t-96 -43.5t-127.5 -17q-148 0 -252.5 104.5t-104.5 252.5q0 147 113.5 252.5t263.5 105.5q74 0 149.5 -27t102.5 -51v-119q-56 96 -156 145.5t-198 27.5q-62 -13 -107.5 -55.5t-66 -100t-24 -125.5t18.5 -134
q41 -135 136 -202.5t227 -50.5q82 11 138 72v243zM367 862q19 0 31.5 -13t12.5 -31t-12.5 -31t-31.5 -13q-18 0 -30.5 13t-12.5 31t12.5 31t30.5 13z" />
    <glyph glyph-name="gdotaccent" unicode="&#x121;" horiz-adv-x="570" 
d="M580 507v-48l-161 -6q56 -28 89 -78t33 -116q0 -115 -82.5 -189.5t-188.5 -74.5q-39 0 -68 7q-69 8 -125 -39q-32 -26 -35 -60q-2 -32 17 -52q23 -25 70 -25q25 0 56.5 14t51.5 27.5t59 42.5t61.5 44.5t58 30.5t64.5 15q41 0 66.5 -23.5t25.5 -62.5q0 -43 -32 -75
q-45 -45 -127 -45q-41 0 -89.5 22.5t-76.5 47.5q-68 -46 -118 -46q-52 0 -76 27q-22 24 -19 58q2 36 37 67q42 35 100 41q-69 23 -110 76.5t-41 128.5q0 118 82 191.5t189 73.5q59 0 112 -22zM301 -97q-27 -20 -47 -34q28 -24 74 -45t85 -21q79 0 121 42q30 32 29 69
q0 35 -23 56t-60 21q-28 0 -62 -15t-56 -29.5t-61 -43.5zM457 291q-28 94 -94.5 145.5t-148.5 27.5q-55 -16 -87 -60.5t-35.5 -100.5t12.5 -118q27 -95 94 -146t149 -27q55 16 87 60.5t35.5 100.5t-12.5 118zM269 632q19 0 31.5 -13t12.5 -31t-12.5 -31t-31.5 -13
q-18 0 -30.5 13t-12.5 31t12.5 31t30.5 13z" />
    <glyph glyph-name="Gcommaaccent" unicode="&#x122;" horiz-adv-x="756" 
d="M617 333h79v-175q-12 -25 -35 -50.5t-60.5 -52t-96 -43.5t-127.5 -17q-148 0 -252.5 104.5t-104.5 252.5q0 147 113.5 252.5t263.5 105.5q74 0 149.5 -27t102.5 -51v-119q-56 96 -156 145.5t-198 27.5q-62 -13 -107.5 -55.5t-66 -100t-24 -125.5t18.5 -134
q41 -135 136 -202.5t227 -50.5q82 11 138 72v243zM358 -83q17 0 30 -12.5t13 -30.5q0 -60 -72 -116l-4 3q50 42 62 82q-14 -12 -29 -12q-18 0 -30.5 13t-12.5 30q0 18 12.5 30.5t30.5 12.5z" />
    <glyph glyph-name="gcommaaccent" unicode="&#x123;" horiz-adv-x="570" 
d="M580 507v-48l-161 -6q56 -28 89 -78t33 -116q0 -115 -82.5 -189.5t-188.5 -74.5q-39 0 -68 7q-69 8 -125 -39q-32 -26 -35 -60q-2 -32 17 -52q23 -25 70 -25q25 0 56.5 14t51.5 27.5t59 42.5t61.5 44.5t58 30.5t64.5 15q41 0 66.5 -23.5t25.5 -62.5q0 -43 -32 -75
q-45 -45 -127 -45q-41 0 -89.5 22.5t-76.5 47.5q-68 -46 -118 -46q-52 0 -76 27q-22 24 -19 58q2 36 37 67q42 35 100 41q-69 23 -110 76.5t-41 128.5q0 118 82 191.5t189 73.5q59 0 112 -22zM301 -97q-27 -20 -47 -34q28 -24 74 -45t85 -21q79 0 121 42q30 32 29 69
q0 35 -23 56t-60 21q-28 0 -62 -15t-56 -29.5t-61 -43.5zM457 291q-28 94 -94.5 145.5t-148.5 27.5q-55 -16 -87 -60.5t-35.5 -100.5t12.5 -118q27 -95 94 -146t149 -27q55 16 87 60.5t35.5 100.5t-12.5 118zM270 664q23 0 39 -16t16 -38t-16 -38t-39 -16q-22 0 -38 16
t-16 38q0 76 90 148l5 -5q-63 -53 -77 -103q14 14 36 14z" />
    <glyph glyph-name="Hcircumflex" unicode="&#x124;" horiz-adv-x="626" 
d="M487 700h79v-700h-79v411h-348v-411h-79v700h79v-282h348v282zM313 906l128 -128l-5 -5l-123 79l-123 -79l-5 5z" />
    <glyph glyph-name="hcircumflex" unicode="&#x125;" horiz-adv-x="530" 
d="M470 306q5 -52 16.5 -170.5t13.5 -135.5h-79q-2 19 -14.5 160.5t-14.5 159.5q-7 66 -39.5 110.5t-91.5 32.5q-39 -7 -67.5 -44.5t-41 -90t-18 -96.5t-5.5 -83v-149h-79v700h79v-467q4 38 10.5 69.5t20 66t31.5 58t48 39t67 15.5q65 0 110 -44.5t54 -130.5zM197 912
l128 -128l-5 -5l-123 79l-123 -79l-5 5z" />
    <glyph glyph-name="Hbar" unicode="&#x126;" horiz-adv-x="626" 
d="M566 539h76v-7h-76v-532h-79v411h-348v-411h-79v532h-76v7h76v161h79v-161h348v161h79v-161zM487 418v114h-348v-114h348z" />
    <glyph glyph-name="hbar" unicode="&#x127;" horiz-adv-x="561" 
d="M500 306q7 -58 18.5 -179t12.5 -127h-79q-2 19 -14.5 160.5t-14.5 159.5q-7 66 -39.5 110.5t-91.5 32.5q-39 -7 -67.5 -44.5t-41 -90t-18 -97t-5.5 -83.5v-148h-79v557h-91v7h91v136h79v-136h215v-7h-215v-324q6 49 15.5 87t28.5 77.5t53 61.5t80 22q65 0 109.5 -44.5
t53.5 -130.5z" />
    <glyph glyph-name="Itilde" unicode="&#x128;" horiz-adv-x="199" 
d="M60 700h79v-700h-79v700zM244 866l8 -2q-29 -89 -86 -89q-33 0 -89.5 20.5t-74.5 20.5q-20 0 -29.5 -9.5t-18.5 -36.5l-8 2q14 43 34.5 64t54.5 21q31 0 82.5 -20.5t79.5 -19.5q17 0 27.5 10.5t19.5 38.5z" />
    <glyph glyph-name="itilde" unicode="&#x129;" horiz-adv-x="178" 
d="M50 0v481h78v-481h-78zM234 636l8 -2q-29 -89 -86 -89q-33 0 -89.5 20.5t-74.5 20.5q-20 0 -29.5 -9.5t-18.5 -36.5l-8 2q14 43 34.5 64t54.5 21q31 0 82.5 -20.5t79.5 -19.5q17 0 27.5 10.5t19.5 38.5z" />
    <glyph glyph-name="Imacron" unicode="&#x12a;" horiz-adv-x="199" 
d="M60 700h79v-700h-79v700zM-56 822h310v-8h-310v8z" />
    <glyph glyph-name="imacron" unicode="&#x12b;" horiz-adv-x="178" 
d="M50 0v481h78v-481h-78zM-66 592h310v-8h-310v8z" />
    <glyph glyph-name="Ibreve" unicode="&#x12c;" horiz-adv-x="199" 
d="M60 700h79v-700h-79v700zM209 905h6q-4 -57 -34.5 -90t-81.5 -33t-81.5 33t-34.5 90h7q21 -78 109 -78t110 78z" />
    <glyph glyph-name="ibreve" unicode="&#x12d;" horiz-adv-x="178" 
d="M50 0v481h78v-481h-78zM199 675h6q-4 -57 -34.5 -90t-81.5 -33t-81.5 33t-34.5 90h7q21 -78 109 -78t110 78z" />
    <glyph glyph-name="Iogonek" unicode="&#x12e;" horiz-adv-x="199" 
d="M178 -144l4 -6q-23 -25 -41 -34q-34 -17 -67 -10.5t-48 29.5q-23 36 1 87t74 78h-41v700h79v-700h-24q-46 -23 -63 -70t7 -80q29 -40 80 -23q15 5 39 29z" />
    <glyph glyph-name="iogonek" unicode="&#x12f;" horiz-adv-x="178" 
d="M85 562q-19 0 -33 14t-14 33t14 33t33 14t33 -14t14 -33t-14 -33t-33 -14zM168 -144l4 -6q-23 -25 -41 -34q-34 -17 -67 -10.5t-48 29.5q-24 36 0.5 87t75.5 78h-43v481h79v-481h-23q-46 -23 -62.5 -70t6.5 -80q29 -40 80 -23q15 5 39 29z" />
    <glyph glyph-name="Idotaccent" unicode="&#x130;" horiz-adv-x="199" 
d="M60 700h79v-700h-79v700zM99 862q19 0 31.5 -13t12.5 -31t-12.5 -31t-31.5 -13q-18 0 -30.5 13t-12.5 31t12.5 31t30.5 13z" />
    <glyph glyph-name="dotlessi" unicode="&#x131;" horiz-adv-x="178" 
d="M50 0v481h78v-481h-78z" />
    <glyph glyph-name="IJ" unicode="&#x132;" horiz-adv-x="421" 
d="M60 700h79v-700h-79v700zM203 700h158v-538q0 -62 -19 -108.5t-54.5 -76.5t-68 -47t-77.5 -32l-3 9q49 18 78.5 44.5t47 78.5t17.5 132v530h-79v8z" />
    <glyph glyph-name="ij" unicode="&#x133;" horiz-adv-x="362" 
d="M52 0v481h78v-481h-78zM88 562q-20 0 -33.5 14t-13.5 33t13.5 33t33.5 14t33.5 -14t13.5 -33t-13.5 -33t-33.5 -14zM236 -14v495h78v-484q0 -62 -15 -107.5t-44.5 -75t-57.5 -46.5t-70 -34l-2 7q47 23 69 47.5t32 69t10 128.5zM272 562q-20 0 -33.5 14t-13.5 33t13.5 33
t33.5 14t33.5 -14t13.5 -33t-13.5 -33t-33.5 -14z" />
    <glyph glyph-name="Jcircumflex" unicode="&#x134;" horiz-adv-x="252" 
d="M34 700h158v-538q0 -62 -19 -108.5t-54.5 -76.5t-68 -47t-77.5 -32l-3 9q49 18 78.5 44.5t47 78.5t17.5 132v530h-79v8zM145 906l128 -128l-5 -5l-123 79l-123 -79l-5 5z" />
    <glyph glyph-name="jcircumflex" unicode="&#x135;" horiz-adv-x="178" 
d="M50 -14v495h78v-484q0 -62 -15 -107.5t-44.5 -75t-57.5 -46.5t-70 -34l-2 7q47 23 69 47.5t32 69t10 128.5zM91 676l128 -128l-5 -5l-123 79l-123 -79l-5 5z" />
    <glyph glyph-name="Kcommaaccent" unicode="&#x136;" horiz-adv-x="582" 
d="M488 0l-236 412l-113 -117v-295h-79v700h79v-395l374 387h11l-218 -225l266 -467h-84zM296 -83q17 0 30 -12.5t13 -30.5q0 -60 -72 -116l-4 3q50 42 62 82q-14 -12 -29 -12q-18 0 -30.5 13t-12.5 30q0 18 12.5 30.5t30.5 12.5z" />
    <glyph glyph-name="kcommaaccent" unicode="&#x137;" horiz-adv-x="485" 
d="M260 330l205 -330h-81l-175 286l-81 -72v-214h-78v700h78v-477l283 251h11zM247 -83q17 0 30 -12.5t13 -30.5q0 -60 -72 -116l-4 3q50 42 62 82q-14 -12 -29 -12q-18 0 -30.5 13t-12.5 30q0 18 12.5 30.5t30.5 12.5z" />
    <glyph glyph-name="kgreenlandic" unicode="&#x138;" horiz-adv-x="485" 
d="M260 330l205 -330h-81l-175 286l-81 -72v-214h-78v474h78v-251l283 251h11z" />
    <glyph glyph-name="Lacute" unicode="&#x139;" horiz-adv-x="453" 
d="M138 7l285 54v-61h-363v700h78v-693zM261 924q19 -27 -14 -46q-98 -56 -149 -75l-6 9q63 59 122 112q28 25 47 0z" />
    <glyph glyph-name="lacute" unicode="&#x13a;" horiz-adv-x="179" 
d="M50 700h79v-700h-79v700zM169 924q19 -27 -14 -46q-98 -56 -149 -75l-6 9q63 59 122 112q28 25 47 0z" />
    <glyph glyph-name="Lcommaaccent" unicode="&#x13b;" horiz-adv-x="453" 
d="M138 7l285 54v-61h-363v700h78v-693zM241 -83q17 0 30 -12.5t13 -30.5q0 -60 -72 -116l-4 3q50 42 62 82q-14 -12 -29 -12q-18 0 -30.5 13t-12.5 30q0 18 12.5 30.5t30.5 12.5z" />
    <glyph glyph-name="lcommaaccent" unicode="&#x13c;" horiz-adv-x="179" 
d="M50 700h79v-700h-79v700zM90 -83q17 0 30 -12.5t13 -30.5q0 -60 -72 -116l-4 3q50 42 62 82q-14 -12 -29 -12q-18 0 -30.5 13t-12.5 30q0 18 12.5 30.5t30.5 12.5z" />
    <glyph glyph-name="Lcaron" unicode="&#x13d;" horiz-adv-x="453" 
d="M138 7l285 54v-61h-363v700h78v-693zM281 711q22 0 38.5 -16t16.5 -38q0 -76 -90 -148l-5 5q61 54 77 103q-17 -15 -37 -15q-22 0 -38 16.5t-16 38.5t16 38t38 16z" />
    <glyph glyph-name="lcaron" unicode="&#x13e;" horiz-adv-x="252" 
d="M50 700h79v-700h-79v700zM257 711q22 0 38.5 -16t16.5 -38q0 -76 -90 -148l-5 5q61 54 77 103q-17 -15 -37 -15q-22 0 -38 16.5t-16 38.5t16 38t38 16z" />
    <glyph glyph-name="Ldot" unicode="&#x13f;" horiz-adv-x="453" 
d="M294 338q19 0 31.5 -13t12.5 -31t-12.5 -31t-31.5 -13q-18 0 -30.5 13t-12.5 31t12.5 31t30.5 13zM138 7l285 54v-61h-363v700h78v-693z" />
    <glyph glyph-name="ldot" unicode="&#x140;" horiz-adv-x="327" 
d="M253 338q19 0 31.5 -13t12.5 -31t-12.5 -31t-31.5 -13q-18 0 -30.5 13t-12.5 31t12.5 31t30.5 13zM50 700h79v-700h-79v700z" />
    <glyph glyph-name="Lslash" unicode="&#x141;" horiz-adv-x="453" 
d="M139 7l284 54v-61h-363v188l-89 -37v9l89 37v503h79v-470l188 79v-9l-188 -79v-214z" />
    <glyph glyph-name="lslash" unicode="&#x142;" horiz-adv-x="257" 
d="M153 341l104 51v-10l-104 -51v-331h-79v292l-104 -51v10l104 51v398h79v-359z" />
    <glyph glyph-name="Nacute" unicode="&#x143;" horiz-adv-x="632" 
d="M554 700h8v-700h-15l-476 609v-609h-7v619l-64 81h101l453 -574v574zM430 924q19 -27 -14 -46q-98 -56 -149 -75l-6 9q63 59 122 112q28 25 47 0z" />
    <glyph glyph-name="nacute" unicode="&#x144;" 
d="M470 306q3 -34 10.5 -109.5t13 -128t7.5 -68.5h-80q0 5 -7 81t-13.5 146t-8.5 93q-7 66 -39.5 110.5t-91.5 32.5q-39 -7 -67.5 -45t-41 -90.5t-18 -96.5t-5.5 -83v-148h-79v474h79v-241q4 38 10.5 69.5t20 66t31.5 58t48 39t67 15.5q65 0 110 -44.5t54 -130.5zM365 694
q19 -27 -14 -46q-98 -56 -149 -75l-6 9q63 59 122 112q28 25 47 0z" />
    <glyph glyph-name="Ncommaaccent" unicode="&#x145;" horiz-adv-x="632" 
d="M554 700h8v-700h-15l-476 609v-609h-7v619l-64 81h101l453 -574v574zM281 -83q17 0 30 -12.5t13 -30.5q0 -60 -72 -116l-4 3q50 42 62 82q-14 -12 -29 -12q-18 0 -30.5 13t-12.5 30q0 18 12.5 30.5t30.5 12.5z" />
    <glyph glyph-name="ncommaaccent" unicode="&#x146;" 
d="M470 306q3 -34 10.5 -109.5t13 -128t7.5 -68.5h-80q0 5 -7 81t-13.5 146t-8.5 93q-7 66 -39.5 110.5t-91.5 32.5q-39 -7 -67.5 -45t-41 -90.5t-18 -96.5t-5.5 -83v-148h-79v474h79v-241q4 38 10.5 69.5t20 66t31.5 58t48 39t67 15.5q65 0 110 -44.5t54 -130.5zM275 -83
q17 0 30 -12.5t13 -30.5q0 -60 -72 -116l-4 3q50 42 62 82q-14 -12 -29 -12q-18 0 -30.5 13t-12.5 30q0 18 12.5 30.5t30.5 12.5z" />
    <glyph glyph-name="Ncaron" unicode="&#x147;" horiz-adv-x="632" 
d="M554 700h8v-700h-15l-476 609v-609h-7v619l-64 81h101l453 -574v574zM453 906l6 -5l-128 -128l-128 128l5 5l123 -79z" />
    <glyph glyph-name="ncaron" unicode="&#x148;" 
d="M470 306q3 -34 10.5 -109.5t13 -128t7.5 -68.5h-80q0 5 -7 81t-13.5 146t-8.5 93q-7 66 -39.5 110.5t-91.5 32.5q-39 -7 -67.5 -45t-41 -90.5t-18 -96.5t-5.5 -83v-148h-79v474h79v-241q4 38 10.5 69.5t20 66t31.5 58t48 39t67 15.5q65 0 110 -44.5t54 -130.5zM397 676
l6 -5l-128 -128l-128 128l5 5l123 -79z" />
    <glyph glyph-name="napostrophe" unicode="&#x149;" horiz-adv-x="641" 
d="M53 481q18 0 30.5 -12.5t12.5 -30.5q0 -59 -71 -117l-4 4q50 43 61 82q-14 -12 -29 -12q-18 0 -30.5 13t-12.5 30q0 18 12.5 30.5t30.5 12.5zM580 306q3 -34 10.5 -109.5t13 -128t7.5 -68.5h-80q0 5 -7 81t-13.5 146t-8.5 93q-7 66 -39.5 110.5t-91.5 32.5
q-39 -7 -67.5 -45t-41 -90.5t-18 -96.5t-5.5 -83v-148h-79v474h79v-241q4 38 10.5 69.5t20 66t31.5 58t48 39t67 15.5q65 0 110 -44.5t54 -130.5z" />
    <glyph glyph-name="Eng" unicode="&#x14a;" horiz-adv-x="631" 
d="M553 700h8v-700q0 -80 -36 -122.5t-106 -42.5v8q134 0 134 157h-7l-475 609v-609h-8v619l-63 81h100l453 -574v574z" />
    <glyph glyph-name="eng" unicode="&#x14b;" horiz-adv-x="575" 
d="M512 -3q11 -97 -29.5 -148.5t-117.5 -51.5q-49 0 -87 32l6 9q38 -31 83 -31q20 0 34 8t21 24t11.5 31.5t4.5 39.5t-1 38.5t-3 37.5q-19 214 -33 334q-6 66 -38.5 110.5t-91.5 32.5q-39 -8 -67.5 -45.5t-41.5 -90t-18.5 -96.5t-5.5 -83v-148h-78v474h78v-241
q29 248 178 248q64 0 109 -44.5t54 -130.5q20 -192 33 -309z" />
    <glyph glyph-name="Omacron" unicode="&#x14c;" horiz-adv-x="788" 
d="M394 710q149 0 261.5 -105.5t112.5 -252.5q0 -146 -112.5 -251.5t-261.5 -105.5q-150 0 -262 105.5t-112 251.5q0 147 112 252.5t262 105.5zM394 3q127 0 208.5 103t81.5 246t-81.5 246t-208.5 103q-128 0 -209 -103t-81 -246t81.5 -246t208.5 -103zM239 822h310v-8h-310
v8z" />
    <glyph glyph-name="omacron" unicode="&#x14d;" horiz-adv-x="568" 
d="M284 481q102 0 183 -67.5t81 -175.5t-81 -175.5t-183 -67.5t-183 67.5t-81 175.5t81 175.5t183 67.5zM284 3q75 0 128.5 68.5t53.5 166.5t-53.5 166.5t-128.5 68.5t-128.5 -68.5t-53.5 -166.5t53.5 -166.5t128.5 -68.5zM129 592h310v-8h-310v8z" />
    <glyph glyph-name="Obreve" unicode="&#x14e;" horiz-adv-x="788" 
d="M394 710q149 0 261.5 -105.5t112.5 -252.5q0 -146 -112.5 -251.5t-261.5 -105.5q-150 0 -262 105.5t-112 251.5q0 147 112 252.5t262 105.5zM394 3q127 0 208.5 103t81.5 246t-81.5 246t-208.5 103q-128 0 -209 -103t-81 -246t81.5 -246t208.5 -103zM504 905h6
q-4 -57 -34.5 -90t-81.5 -33t-81.5 33t-34.5 90h7q21 -78 109 -78t110 78z" />
    <glyph glyph-name="obreve" unicode="&#x14f;" horiz-adv-x="568" 
d="M284 481q102 0 183 -67.5t81 -175.5t-81 -175.5t-183 -67.5t-183 67.5t-81 175.5t81 175.5t183 67.5zM284 3q75 0 128.5 68.5t53.5 166.5t-53.5 166.5t-128.5 68.5t-128.5 -68.5t-53.5 -166.5t53.5 -166.5t128.5 -68.5zM394 675h6q-4 -57 -34.5 -90t-81.5 -33t-81.5 33
t-34.5 90h7q21 -78 109 -78t110 78z" />
    <glyph glyph-name="Ohungarumlaut" unicode="&#x150;" horiz-adv-x="788" 
d="M394 710q149 0 261.5 -105.5t112.5 -252.5q0 -146 -112.5 -251.5t-261.5 -105.5q-150 0 -262 105.5t-112 251.5q0 147 112 252.5t262 105.5zM394 3q127 0 208.5 103t81.5 246t-81.5 246t-208.5 103q-128 0 -209 -103t-81 -246t81.5 -246t208.5 -103zM384 931q22 31 47 10
q24 -22 -4 -47q-78 -75 -127 -108l-8 7q17 28 92 138zM579 941q10 -8 10.5 -20.5t-13.5 -26.5q-72 -69 -127 -108l-8 7q10 17 92 138q23 31 46 10z" />
    <glyph glyph-name="ohungarumlaut" unicode="&#x151;" horiz-adv-x="568" 
d="M284 481q102 0 183 -67.5t81 -175.5t-81 -175.5t-183 -67.5t-183 67.5t-81 175.5t81 175.5t183 67.5zM284 3q75 0 128.5 68.5t53.5 166.5t-53.5 166.5t-128.5 68.5t-128.5 -68.5t-53.5 -166.5t53.5 -166.5t128.5 -68.5zM284 701q22 31 47 10q24 -22 -4 -47
q-78 -75 -127 -108l-8 7q17 28 92 138zM479 711q10 -8 10.5 -20.5t-13.5 -26.5q-72 -69 -127 -108l-8 7q10 17 92 138q23 31 46 10z" />
    <glyph glyph-name="OE" unicode="&#x152;" horiz-adv-x="1092" 
d="M768 7l284 54v-61h-363v136q-53 -65 -131 -103t-164 -38q-150 0 -262 105.5t-112 251.5q0 147 112 252.5t262 105.5q86 0 164 -38t131 -104v132h352v-62l-273 54v-295l252 22v-51l-252 22v-383zM394 3q127 0 208.5 103t81.5 246t-81.5 246t-208.5 103q-128 0 -209 -103
t-81 -246t81.5 -246t208.5 -103z" />
    <glyph glyph-name="oe" unicode="&#x153;" horiz-adv-x="981" 
d="M955 139l6 -4q-74 -133 -209 -140q-73 -3 -140.5 25.5t-104.5 86.5q-37 -53 -97.5 -82.5t-125.5 -29.5t-124.5 28t-99.5 85t-40 130q0 108 81 175.5t183 67.5q66 0 128 -31t98 -85q37 54 99.5 83.5t124.5 32.5q74 4 140 -35.5t76 -122.5h-393q-21 -85 6 -160
q28 -78 87.5 -118.5t135.5 -32.5q105 12 169 127zM689 470q-49 -9 -82.5 -47t-47.5 -92h318q-9 68 -63 110t-125 29zM284 3q75 0 128.5 68.5t53.5 166.5t-53.5 166.5t-128.5 68.5t-128.5 -68.5t-53.5 -166.5t53.5 -166.5t128.5 -68.5z" />
    <glyph glyph-name="Racute" unicode="&#x154;" horiz-adv-x="578" 
d="M352 337l196 -337h-86l-185 325q-15 -1 -46 -1h-92v-324h-79v700h171q126 0 211 -48t85 -140q0 -68 -47.5 -112t-127.5 -63zM231 331q217 0 217 181q0 180 -217 180h-92v-361h92zM373 924q19 -27 -14 -46q-98 -56 -149 -75l-6 9q63 59 122 112q28 25 47 0z" />
    <glyph glyph-name="racute" unicode="&#x155;" horiz-adv-x="363" 
d="M266 481q48 0 87 -37v-100q-54 107 -128 97q-93 -14 -96 -282v-159h-79v474h79v-205q18 212 137 212zM291 694q19 -27 -14 -46q-98 -56 -149 -75l-6 9q63 59 122 112q28 25 47 0z" />
    <glyph glyph-name="Rcommaaccent" unicode="&#x156;" horiz-adv-x="578" 
d="M352 337l196 -337h-86l-185 325q-15 -1 -46 -1h-92v-324h-79v700h171q126 0 211 -48t85 -140q0 -68 -47.5 -112t-127.5 -63zM231 331q217 0 217 181q0 180 -217 180h-92v-361h92zM294 -83q17 0 30 -12.5t13 -30.5q0 -60 -72 -116l-4 3q50 42 62 82q-14 -12 -29 -12
q-18 0 -30.5 13t-12.5 30q0 18 12.5 30.5t30.5 12.5z" />
    <glyph glyph-name="rcommaaccent" unicode="&#x157;" horiz-adv-x="363" 
d="M266 481q48 0 87 -37v-100q-54 107 -128 97q-93 -14 -96 -282v-159h-79v474h79v-205q18 212 137 212zM90 -83q17 0 30 -12.5t13 -30.5q0 -60 -72 -116l-4 3q50 42 62 82q-14 -12 -29 -12q-18 0 -30.5 13t-12.5 30q0 18 12.5 30.5t30.5 12.5z" />
    <glyph glyph-name="Rcaron" unicode="&#x158;" horiz-adv-x="578" 
d="M352 337l196 -337h-86l-185 325q-15 -1 -46 -1h-92v-324h-79v700h171q126 0 211 -48t85 -140q0 -68 -47.5 -112t-127.5 -63zM231 331q217 0 217 181q0 180 -217 180h-92v-361h92zM396 906l6 -5l-128 -128l-128 128l5 5l123 -79z" />
    <glyph glyph-name="rcaron" unicode="&#x159;" horiz-adv-x="363" 
d="M266 481q48 0 87 -37v-100q-54 107 -128 97q-93 -14 -96 -282v-159h-79v474h79v-205q18 212 137 212zM333 676l6 -5l-128 -128l-128 128l5 5l123 -79z" />
    <glyph glyph-name="Sacute" unicode="&#x15a;" horiz-adv-x="573" 
d="M111 581q-3 -40 19 -71t60 -51t84.5 -37t93.5 -36t86.5 -42t64 -60.5t24.5 -85.5q0 -89 -71.5 -146t-178.5 -57q-63 0 -135.5 20.5t-127.5 56.5v136q42 -80 123 -138.5t171 -58.5q72 0 119.5 32.5t54.5 89.5q5 43 -15 75t-57.5 52.5t-83.5 38t-93.5 37t-86.5 43t-64 62.5
t-25 90q0 72 52.5 125.5t162.5 53.5q53 0 109.5 -18t99.5 -46v-104q-50 78 -114.5 116.5t-119.5 38.5q-142 0 -152 -116zM376 924q19 -27 -14 -46q-98 -56 -149 -75l-6 9q63 59 122 112q28 25 47 0z" />
    <glyph glyph-name="sacute" unicode="&#x15b;" horiz-adv-x="414" 
d="M83 394q-4 -37 26.5 -62.5t76.5 -41.5t92 -33t77 -48t28 -76q-5 -62 -50.5 -100t-126.5 -38q-106 0 -186 56v105q29 -58 88.5 -103.5t122.5 -44.5q55 1 86 22t36 58q4 31 -18 52.5t-57 32.5t-76 26t-75.5 31t-55 49t-14.5 79q15 123 153 123q57 0 137 -42v-103
q-23 62 -66.5 100t-87.5 38q-48 0 -77.5 -23.5t-32.5 -56.5zM301 694q19 -27 -14 -46q-98 -56 -149 -75l-6 9q63 59 122 112q28 25 47 0z" />
    <glyph glyph-name="Scircumflex" unicode="&#x15c;" horiz-adv-x="573" 
d="M111 581q-3 -40 19 -71t60 -51t84.5 -37t93.5 -36t86.5 -42t64 -60.5t24.5 -85.5q0 -89 -71.5 -146t-178.5 -57q-63 0 -135.5 20.5t-127.5 56.5v136q42 -80 123 -138.5t171 -58.5q72 0 119.5 32.5t54.5 89.5q5 43 -15 75t-57.5 52.5t-83.5 38t-93.5 37t-86.5 43t-64 62.5
t-25 90q0 72 52.5 125.5t162.5 53.5q53 0 109.5 -18t99.5 -46v-104q-50 78 -114.5 116.5t-119.5 38.5q-142 0 -152 -116zM286 906l128 -128l-5 -5l-123 79l-123 -79l-5 5z" />
    <glyph glyph-name="scircumflex" unicode="&#x15d;" horiz-adv-x="414" 
d="M83 394q-4 -37 26.5 -62.5t76.5 -41.5t92 -33t77 -48t28 -76q-5 -62 -50.5 -100t-126.5 -38q-106 0 -186 56v105q29 -58 88.5 -103.5t122.5 -44.5q55 1 86 22t36 58q4 31 -18 52.5t-57 32.5t-76 26t-75.5 31t-55 49t-14.5 79q15 123 153 123q57 0 137 -42v-103
q-23 62 -66.5 100t-87.5 38q-48 0 -77.5 -23.5t-32.5 -56.5zM212 676l128 -128l-5 -5l-123 79l-123 -79l-5 5z" />
    <glyph glyph-name="Scedilla" unicode="&#x15e;" horiz-adv-x="573" 
d="M542 198q0 -88 -69 -144.5t-174 -58.5l-22 -57q47 22 88 0t37 -68q-3 -28 -30.5 -48.5t-64.5 -20.5q-45 0 -79 32l4 6q33 -31 74 -31q51 1 59 60q6 44 -19.5 62.5t-75.5 -0.5l-1 3l24 62q-63 0 -136 20.5t-127 56.5v136q42 -81 122.5 -139t171.5 -58q72 0 119.5 32.5
t54.5 89.5q5 43 -15.5 75t-57.5 52.5t-83 38t-93.5 37t-86.5 43t-64 62.5t-25 90q0 72 52.5 125.5t161.5 53.5q53 0 110 -18t99 -46v-104q-50 78 -114 116.5t-120 38.5q-143 0 -151 -116q-3 -40 18.5 -71t59.5 -51t84.5 -37t93.5 -36t86.5 -42t64 -60.5t24.5 -85.5z" />
    <glyph glyph-name="scedilla" unicode="&#x15f;" horiz-adv-x="414" 
d="M83 394q-4 -37 26.5 -62.5t76.5 -41.5t92 -33t77 -48t28 -76q-5 -62 -50.5 -100t-126.5 -38h-7l-22 -57q47 22 88 -0.5t36 -67.5q-3 -28 -30 -48.5t-64 -20.5q-45 0 -79 32l4 6q33 -31 74 -31q51 1 59 60q6 44 -19.5 62.5t-75.5 -0.5l-1 3l24 62q-95 3 -173 56v105
q29 -58 88.5 -103.5t122.5 -44.5q55 1 86 22t36 58q4 31 -18 52.5t-57 32.5t-76 26t-75.5 31t-55 49t-14.5 79q15 123 153 123q57 0 137 -42v-103q-23 62 -66.5 100t-87.5 38q-48 0 -77.5 -23.5t-32.5 -56.5z" />
    <glyph glyph-name="Scaron" unicode="&#x160;" horiz-adv-x="573" 
d="M111 581q-3 -40 19 -71t60 -51t84.5 -37t93.5 -36t86.5 -42t64 -60.5t24.5 -85.5q0 -89 -71.5 -146t-178.5 -57q-63 0 -135.5 20.5t-127.5 56.5v136q42 -80 123 -138.5t171 -58.5q72 0 119.5 32.5t54.5 89.5q5 43 -15 75t-57.5 52.5t-83.5 38t-93.5 37t-86.5 43t-64 62.5
t-25 90q0 72 52.5 125.5t162.5 53.5q53 0 109.5 -18t99.5 -46v-104q-50 78 -114.5 116.5t-119.5 38.5q-142 0 -152 -116zM408 906l6 -5l-128 -128l-128 128l5 5l123 -79z" />
    <glyph glyph-name="scaron" unicode="&#x161;" horiz-adv-x="414" 
d="M83 394q-4 -37 26.5 -62.5t76.5 -41.5t92 -33t77 -48t28 -76q-5 -62 -50.5 -100t-126.5 -38q-106 0 -186 56v105q29 -58 88.5 -103.5t122.5 -44.5q55 1 86 22t36 58q4 31 -18 52.5t-57 32.5t-76 26t-75.5 31t-55 49t-14.5 79q15 123 153 123q57 0 137 -42v-103
q-23 62 -66.5 100t-87.5 38q-48 0 -77.5 -23.5t-32.5 -56.5zM324 676l6 -5l-128 -128l-128 128l5 5l123 -79z" />
    <glyph glyph-name="Tcommaaccent" unicode="&#x162;" horiz-adv-x="662" 
d="M40 700h582v-62l-252 54v-692h-78v692l-252 -54v62zM331 -83q17 0 30 -12.5t13 -30.5q0 -60 -72 -116l-4 3q50 42 62 82q-14 -12 -29 -12q-18 0 -30.5 13t-12.5 30q0 18 12.5 30.5t30.5 12.5z" />
    <glyph glyph-name="tcommaaccent" unicode="&#x163;" horiz-adv-x="386" 
d="M349 177h7q0 -182 -134 -182q-67 0 -105 44.5t-38 130.5v304h-59v7h59l68 137h11v-137h117v-7h-117v-318q0 -73 20 -109.5t75 -33.5q47 2 71.5 49t24.5 115zM212 -83q17 0 30 -12.5t13 -30.5q0 -60 -72 -116l-4 3q50 42 62 82q-14 -12 -29 -12q-18 0 -30.5 13t-12.5 30
q0 18 12.5 30.5t30.5 12.5z" />
    <glyph glyph-name="Tcaron" unicode="&#x164;" horiz-adv-x="662" 
d="M40 700h582v-62l-252 54v-692h-78v692l-252 -54v62zM453 906l6 -5l-128 -128l-128 128l5 5l123 -79z" />
    <glyph glyph-name="tcaron" unicode="&#x165;" horiz-adv-x="386" 
d="M349 177h7q0 -182 -134 -182q-67 0 -105 44.5t-38 130.5v304h-59v7h59l68 137h11v-137h117v-7h-117v-318q0 -73 20 -109.5t75 -33.5q47 2 71.5 49t24.5 115zM284 721q22 0 38.5 -16t16.5 -38q0 -76 -90 -148l-5 5q61 54 77 103q-17 -15 -37 -15q-22 0 -38 16.5t-16 38.5
t16 38t38 16z" />
    <glyph glyph-name="Tbar" unicode="&#x166;" horiz-adv-x="662" 
d="M622 638l-251 54v-281h153v-8h-153v-403h-79v403h-153v8h153v281l-252 -54v62h582v-62z" />
    <glyph glyph-name="tbar" unicode="&#x167;" horiz-adv-x="386" 
d="M349 177h7q0 -182 -134 -182q-68 0 -105.5 44t-37.5 131v179h-59v7h59v118h-59v7h59l68 137h11v-137h117v-7h-117v-118h85v-7h-85v-193q0 -74 20 -110t76 -33q47 1 71 48.5t24 115.5z" />
    <glyph glyph-name="Utilde" unicode="&#x168;" horiz-adv-x="634" 
d="M567 700h7v-464q0 -105 -67.5 -173t-172.5 -68q-119 0 -196.5 67t-77.5 197v441h79v-441q0 -125 61 -193.5t169 -59.5q89 7 143.5 74.5t54.5 155.5v464zM502 866l8 -2q-29 -89 -86 -89q-33 0 -89.5 20.5t-74.5 20.5q-20 0 -29.5 -9.5t-18.5 -36.5l-8 2q14 43 34.5 64
t54.5 21q31 0 82.5 -20.5t79.5 -19.5q17 0 27.5 10.5t19.5 38.5z" />
    <glyph glyph-name="utilde" unicode="&#x169;" horiz-adv-x="521" 
d="M392 474h79v-474h-79v243q-29 -248 -177 -248q-73 0 -119 45t-46 130v304h78v-318q0 -70 35 -112.5t96 -30.5q39 7 67.5 44.5t41.5 90t18.5 97t5.5 83.5v146zM415 636l8 -2q-29 -89 -86 -89q-33 0 -89.5 20.5t-74.5 20.5q-20 0 -29.5 -9.5t-18.5 -36.5l-8 2
q14 43 34.5 64t54.5 21q31 0 82.5 -20.5t79.5 -19.5q17 0 27.5 10.5t19.5 38.5z" />
    <glyph glyph-name="Umacron" unicode="&#x16a;" horiz-adv-x="634" 
d="M567 700h7v-464q0 -105 -67.5 -173t-172.5 -68q-119 0 -196.5 67t-77.5 197v441h79v-441q0 -125 61 -193.5t169 -59.5q89 7 143.5 74.5t54.5 155.5v464zM198 822h310v-8h-310v8z" />
    <glyph glyph-name="umacron" unicode="&#x16b;" horiz-adv-x="521" 
d="M392 474h79v-474h-79v243q-29 -248 -177 -248q-73 0 -119 45t-46 130v304h78v-318q0 -70 35 -112.5t96 -30.5q39 7 67.5 44.5t41.5 90t18.5 97t5.5 83.5v146zM105 592h310v-8h-310v8z" />
    <glyph glyph-name="Ubreve" unicode="&#x16c;" horiz-adv-x="634" 
d="M567 700h7v-464q0 -105 -67.5 -173t-172.5 -68q-119 0 -196.5 67t-77.5 197v441h79v-441q0 -125 61 -193.5t169 -59.5q89 7 143.5 74.5t54.5 155.5v464zM467 905h6q-4 -57 -34.5 -90t-81.5 -33t-81.5 33t-34.5 90h7q21 -78 109 -78t110 78z" />
    <glyph glyph-name="ubreve" unicode="&#x16d;" horiz-adv-x="521" 
d="M392 474h79v-474h-79v243q-29 -248 -177 -248q-73 0 -119 45t-46 130v304h78v-318q0 -70 35 -112.5t96 -30.5q39 7 67.5 44.5t41.5 90t18.5 97t5.5 83.5v146zM380 675h6q-4 -57 -34.5 -90t-81.5 -33t-81.5 33t-34.5 90h7q21 -78 109 -78t110 78z" />
    <glyph glyph-name="Uring" unicode="&#x16e;" horiz-adv-x="634" 
d="M567 700h7v-464q0 -105 -67.5 -173t-172.5 -68q-119 0 -196.5 67t-77.5 197v441h79v-441q0 -125 61 -193.5t169 -59.5q89 7 143.5 74.5t54.5 155.5v464zM356 922q34 0 58 -24t24 -58t-24 -58t-58 -24t-57.5 24t-23.5 58t23.5 58t57.5 24zM356 766q31 0 52.5 21.5
t21.5 52.5q0 30 -21.5 51.5t-52.5 21.5q-30 0 -51.5 -21.5t-21.5 -51.5q0 -31 21.5 -52.5t51.5 -21.5z" />
    <glyph glyph-name="uring" unicode="&#x16f;" horiz-adv-x="521" 
d="M392 474h79v-474h-79v243q-29 -248 -177 -248q-73 0 -119 45t-46 130v304h78v-318q0 -70 35 -112.5t96 -30.5q39 7 67.5 44.5t41.5 90t18.5 97t5.5 83.5v146zM270 692q34 0 58 -24t24 -58t-24 -58t-58 -24t-57.5 24t-23.5 58t23.5 58t57.5 24zM270 536q31 0 52.5 21.5
t21.5 52.5q0 30 -21.5 51.5t-52.5 21.5q-30 0 -51.5 -21.5t-21.5 -51.5q0 -31 21.5 -52.5t51.5 -21.5z" />
    <glyph glyph-name="Uhungarumlaut" unicode="&#x170;" horiz-adv-x="634" 
d="M567 700h7v-464q0 -105 -67.5 -173t-172.5 -68q-119 0 -196.5 67t-77.5 197v441h79v-441q0 -125 61 -193.5t169 -59.5q89 7 143.5 74.5t54.5 155.5v464zM316 931q22 31 47 10q24 -22 -4 -47q-78 -75 -127 -108l-8 7q17 28 92 138zM511 941q10 -8 10.5 -20.5t-13.5 -26.5
q-72 -69 -127 -108l-8 7q10 17 92 138q23 31 46 10z" />
    <glyph glyph-name="uhungarumlaut" unicode="&#x171;" horiz-adv-x="521" 
d="M392 474h79v-474h-79v243q-29 -248 -177 -248q-73 0 -119 45t-46 130v304h78v-318q0 -70 35 -112.5t96 -30.5q39 7 67.5 44.5t41.5 90t18.5 97t5.5 83.5v146zM250 701q22 31 47 10q24 -22 -4 -47q-78 -75 -127 -108l-8 7q17 28 92 138zM445 711q10 -8 10.5 -20.5
t-13.5 -26.5q-72 -69 -127 -108l-8 7q10 17 92 138q23 31 46 10z" />
    <glyph glyph-name="Uogonek" unicode="&#x172;" horiz-adv-x="634" 
d="M567 700h8v-464q0 -86 -46.5 -149t-125.5 -84q-49 -21 -68.5 -70t5.5 -83q29 -40 80 -23q15 5 39 29l4 -6q-23 -25 -40 -34q-35 -16 -67.5 -10t-48.5 29q-23 35 1 85.5t72 77.5q-21 -3 -45 -3q-120 0 -197.5 67t-77.5 197v441h79v-441q0 -125 61 -193.5t169 -59.5
q89 7 143.5 74.5t54.5 155.5v464z" />
    <glyph glyph-name="uogonek" unicode="&#x173;" horiz-adv-x="521" 
d="M518 -144l4 -6q-23 -25 -40 -34q-35 -16 -67.5 -10t-48.5 29q-24 36 0.5 87t75.5 78h-50v243q-4 -38 -10.5 -69.5t-20 -66t-31.5 -58t-48 -39t-67 -15.5q-73 0 -119 45t-46 130v304h78v-318q0 -70 34.5 -112.5t96.5 -30.5q39 7 67.5 44.5t41.5 90t18.5 97t5.5 83.5v146
h79v-474h-16q-46 -23 -62.5 -70t6.5 -80q29 -40 80 -23q15 5 39 29z" />
    <glyph glyph-name="Wcircumflex" unicode="&#x174;" horiz-adv-x="946" 
d="M936 700l-207 -612l34 -88h-79l-207 537l-152 -449l33 -88h-78l-270 700h79l232 -602l152 449l-59 153h79l232 -602l204 602h7zM483 906l128 -128l-5 -5l-123 79l-123 -79l-5 5z" />
    <glyph glyph-name="wcircumflex" unicode="&#x175;" horiz-adv-x="682" 
d="M672 481l-151 -398l32 -83h-79l-128 335l-83 -264l30 -71h-78l-205 481h78l171 -399l83 264l-52 135h79l148 -388l148 388h7zM341 676l128 -128l-5 -5l-123 79l-123 -79l-5 5z" />
    <glyph glyph-name="Ycircumflex" unicode="&#x176;" horiz-adv-x="558" 
d="M548 700l-215 -458v-242h-79v242l-244 458h79l239 -452l212 452h8zM325 906l128 -128l-5 -5l-123 79l-123 -79l-5 5z" />
    <glyph glyph-name="ycircumflex" unicode="&#x177;" horiz-adv-x="434" 
d="M417 481h7l-173 -430q-24 -74 -52.5 -118.5t-59.5 -59t-58.5 -14t-63.5 12.5v71q9 -8 31 -15t53 -10t64 14.5t55 56.5l-210 492h79l167 -399zM247 676l128 -128l-5 -5l-123 79l-123 -79l-5 5z" />
    <glyph glyph-name="Ydieresis" unicode="&#x178;" horiz-adv-x="558" 
d="M548 700l-215 -458v-242h-79v242l-244 458h79l239 -452l212 452h8zM218 862q18 0 31 -13t13 -31t-13 -31t-31 -13t-30.5 13t-12.5 31t12.5 31t30.5 13zM403 862q18 0 31 -13t13 -31t-13 -31t-31 -13t-31 13t-13 31t13 31t31 13z" />
    <glyph glyph-name="Zacute" unicode="&#x179;" horiz-adv-x="557" 
d="M517 700l-410 -692l409 53v-61h-496l409 692l-348 -54v62h436zM398 924q19 -27 -14 -46q-98 -56 -149 -75l-6 9q63 59 122 112q28 25 47 0z" />
    <glyph glyph-name="zacute" unicode="&#x17a;" horiz-adv-x="438" 
d="M418 481l-317 -469l308 28v-40h-399l318 470l-270 -28v39h360zM323 694q19 -27 -14 -46q-98 -56 -149 -75l-6 9q63 59 122 112q28 25 47 0z" />
    <glyph glyph-name="Zdotaccent" unicode="&#x17b;" horiz-adv-x="557" 
d="M517 700l-410 -692l409 53v-61h-496l409 692l-348 -54v62h436zM291 862q19 0 31.5 -13t12.5 -31t-12.5 -31t-31.5 -13q-18 0 -30.5 13t-12.5 31t12.5 31t30.5 13z" />
    <glyph glyph-name="zdotaccent" unicode="&#x17c;" horiz-adv-x="438" 
d="M418 481l-317 -469l308 28v-40h-399l318 470l-270 -28v39h360zM233 632q19 0 31.5 -13t12.5 -31t-12.5 -31t-31.5 -13q-18 0 -30.5 13t-12.5 31t12.5 31t30.5 13z" />
    <glyph glyph-name="Zcaron" unicode="&#x17d;" horiz-adv-x="557" 
d="M517 700l-410 -692l409 53v-61h-496l409 692l-348 -54v62h436zM420 906l6 -5l-128 -128l-128 128l5 5l123 -79z" />
    <glyph glyph-name="zcaron" unicode="&#x17e;" horiz-adv-x="438" 
d="M418 481l-317 -469l308 28v-40h-399l318 470l-270 -28v39h360zM346 676l6 -5l-128 -128l-128 128l5 5l123 -79z" />
    <glyph glyph-name="longs" unicode="&#x17f;" horiz-adv-x="353" 
d="M266 700q-108 0 -108 -143v-557h-79v474h-59v7h59v56q0 86 51 129.5t122 43.5q56 0 86 -25t45 -71l-7 -3q-28 89 -110 89z" />
    <glyph glyph-name="AEacute" unicode="&#x1fc;" horiz-adv-x="830" 
d="M506 7l284 54v-61h-363v269h-239l-170 -269h-8l417 659v41h352v-62l-273 54v-295l252 22v-51l-252 22v-383zM427 276v371l-234 -371h234zM640 924q19 -27 -14 -46q-98 -56 -149 -75l-6 9q63 59 122 112q28 25 47 0z" />
    <glyph glyph-name="aeacute" unicode="&#x1fd;" horiz-adv-x="884" 
d="M858 139l6 -4q-74 -133 -209 -140q-97 -4 -177.5 46t-98.5 146q-3 -74 -49 -133t-130 -59q-73 0 -126.5 44t-53.5 110q0 72 46.5 116.5t106 52t118 -14t81.5 -68.5v93q0 60 -30.5 101.5t-81.5 41.5q-48 0 -82 -24t-46 -65l-6 3q13 43 49.5 69.5t93.5 26.5q52 0 98 -22
t68 -68q38 42 93.5 65t108.5 25q74 4 140 -35.5t76 -122.5h-393q-21 -85 6 -160q28 -78 87.5 -118.5t135.5 -32.5q105 12 169 127zM592 470q-49 -9 -82.5 -47t-47.5 -92h318q-9 68 -63 110t-125 29zM372 200v15q-11 34 -43.5 58t-72 29t-77 -5t-62.5 -46.5t-25 -92.5
q0 -61 38.5 -102.5t91.5 -41.5q67 0 108.5 57t41.5 129zM581 694q19 -27 -14 -46q-98 -56 -149 -75l-6 9q63 59 122 112q28 25 47 0z" />
    <glyph glyph-name="Oslashacute" unicode="&#x1fe;" horiz-adv-x="788" 
d="M653 607q114 -106 114 -255q0 -146 -112 -251.5t-262 -105.5q-143 0 -254 98l-83 -83l-5 5l83 83q-114 106 -114 254q0 147 112 252.5t261 105.5q145 0 254 -98l83 83l6 -6zM104 352q0 -126 63 -221l449 449q-85 121 -223 121q-127 0 -208 -103t-81 -246zM393 3
q127 0 208.5 103t81.5 246q0 125 -63 221l-449 -448q84 -122 222 -122zM493 924q19 -27 -14 -46q-98 -56 -149 -75l-6 9q63 59 122 112q28 25 47 0z" />
    <glyph glyph-name="oslashacute" unicode="&#x1ff;" horiz-adv-x="568" 
d="M466 414q82 -70 82 -176q0 -73 -40 -130t-99.5 -85t-124.5 -28q-100 0 -176 61l-82 -82l-6 6l82 81q-82 70 -82 177q0 108 81 175.5t183 67.5q98 0 176 -62l82 82l5 -5zM102 238q0 -76 36 -140l287 287q-25 41 -62 64.5t-79 23.5q-75 0 -128.5 -68.5t-53.5 -166.5zM284 3
q74 0 127.5 68.5t53.5 166.5q0 79 -36 140l-287 -287q55 -88 142 -88zM383 694q19 -27 -14 -46q-98 -56 -149 -75l-6 9q63 59 122 112q28 25 47 0z" />
    <glyph glyph-name="Scommaaccent" unicode="&#x218;" horiz-adv-x="573" 
d="M111 581q-3 -40 19 -71t60 -51t84.5 -37t93.5 -36t86.5 -42t64 -60.5t24.5 -85.5q0 -89 -71.5 -146t-178.5 -57q-63 0 -135.5 20.5t-127.5 56.5v136q42 -80 123 -138.5t171 -58.5q72 0 119.5 32.5t54.5 89.5q5 43 -15 75t-57.5 52.5t-83.5 38t-93.5 37t-86.5 43t-64 62.5
t-25 90q0 72 52.5 125.5t162.5 53.5q53 0 109.5 -18t99.5 -46v-104q-50 78 -114.5 116.5t-119.5 38.5q-142 0 -152 -116zM264 -83q17 0 30 -12.5t13 -30.5q0 -60 -72 -116l-4 3q50 42 62 82q-14 -12 -29 -12q-18 0 -30.5 13t-12.5 30q0 18 12.5 30.5t30.5 12.5z" />
    <glyph glyph-name="scommaaccent" unicode="&#x219;" horiz-adv-x="414" 
d="M83 394q-4 -37 26.5 -62.5t76.5 -41.5t92 -33t77 -48t28 -76q-5 -62 -50.5 -100t-126.5 -38q-106 0 -186 56v105q29 -58 88.5 -103.5t122.5 -44.5q55 1 86 22t36 58q4 31 -18 52.5t-57 32.5t-76 26t-75.5 31t-55 49t-14.5 79q15 123 153 123q57 0 137 -42v-103
q-23 62 -66.5 100t-87.5 38q-48 0 -77.5 -23.5t-32.5 -56.5zM202 -83q17 0 30 -12.5t13 -30.5q0 -60 -72 -116l-4 3q50 42 62 82q-14 -12 -29 -12q-18 0 -30.5 13t-12.5 30q0 18 12.5 30.5t30.5 12.5z" />
    <glyph glyph-name="circumflex" unicode="&#x2c6;" horiz-adv-x="376" 
d="M188 706l128 -128l-5 -5l-123 79l-123 -79l-5 5z" />
    <glyph glyph-name="caron" unicode="&#x2c7;" horiz-adv-x="376" 
d="M310 706l6 -5l-128 -128l-128 128l5 5l123 -79z" />
    <glyph glyph-name="breve" unicode="&#x2d8;" horiz-adv-x="352" 
d="M286 705h6q-4 -57 -34.5 -90t-81.5 -33t-81.5 33t-34.5 90h7q21 -78 109 -78t110 78z" />
    <glyph glyph-name="dotaccent" unicode="&#x2d9;" horiz-adv-x="207" 
d="M103 662q19 0 31.5 -13t12.5 -31t-12.5 -31t-31.5 -13q-18 0 -30.5 13t-12.5 31t12.5 31t30.5 13z" />
    <glyph glyph-name="ring" unicode="&#x2da;" horiz-adv-x="283" 
d="M141 722q34 0 58 -24t24 -58t-23.5 -58t-58.5 -24q-34 0 -57.5 24t-23.5 58t23.5 58t57.5 24zM141 566q31 0 52.5 21.5t21.5 52.5q0 30 -21.5 51.5t-52.5 21.5q-30 0 -51.5 -21.5t-21.5 -51.5q0 -31 21.5 -52.5t51.5 -21.5z" />
    <glyph glyph-name="ogonek" unicode="&#x2db;" horiz-adv-x="288" 
d="M185 -173q17 6 38 29l5 -6q-23 -25 -41 -34q-34 -17 -67 -10.5t-48 29.5q-26 39 5 95t87 77l5 -3q-50 -21 -69.5 -70.5t5.5 -83.5q29 -40 80 -23z" />
    <glyph glyph-name="tilde" unicode="&#x2dc;" horiz-adv-x="426" 
d="M358 666l8 -2q-29 -89 -86 -89q-33 0 -89.5 20.5t-74.5 20.5q-20 0 -29.5 -9.5t-18.5 -36.5l-8 2q14 43 34.5 64t54.5 21q31 0 82.5 -20.5t79.5 -19.5q17 0 27.5 10.5t19.5 38.5z" />
    <glyph glyph-name="hungarumlaut" unicode="&#x2dd;" horiz-adv-x="418" 
d="M152 731q22 31 47 10q24 -22 -4 -47q-78 -75 -127 -108l-8 7q17 28 92 138zM347 741q10 -8 10.5 -20.5t-13.5 -26.5q-72 -69 -127 -108l-8 7q10 17 92 138q23 31 46 10z" />
    <glyph glyph-name="Wgrave" unicode="&#x1e80;" horiz-adv-x="946" 
d="M936 700l-207 -612l34 -88h-79l-207 537l-152 -449l33 -88h-78l-270 700h79l232 -602l152 449l-59 153h79l232 -602l204 602h7zM410 924q59 -53 122 -112l-6 -9q-51 19 -149 75q-33 19 -14 46q19 25 47 0z" />
    <glyph glyph-name="wgrave" unicode="&#x1e81;" horiz-adv-x="682" 
d="M672 481l-151 -398l32 -83h-79l-128 335l-83 -264l30 -71h-78l-205 481h78l171 -399l83 264l-52 135h79l148 -388l148 388h7zM298 694q59 -53 122 -112l-6 -9q-51 19 -149 75q-33 19 -14 46q19 25 47 0z" />
    <glyph glyph-name="Wacute" unicode="&#x1e82;" horiz-adv-x="946" 
d="M936 700l-207 -612l34 -88h-79l-207 537l-152 -449l33 -88h-78l-270 700h79l232 -602l152 449l-59 153h79l232 -602l204 602h7zM582 924q19 -27 -14 -46q-98 -56 -149 -75l-6 9q63 59 122 112q28 25 47 0z" />
    <glyph glyph-name="wacute" unicode="&#x1e83;" horiz-adv-x="682" 
d="M672 481l-151 -398l32 -83h-79l-128 335l-83 -264l30 -71h-78l-205 481h78l171 -399l83 264l-52 135h79l148 -388l148 388h7zM440 694q19 -27 -14 -46q-98 -56 -149 -75l-6 9q63 59 122 112q28 25 47 0z" />
    <glyph glyph-name="Wdieresis" unicode="&#x1e84;" horiz-adv-x="946" 
d="M936 700l-207 -612l34 -88h-79l-207 537l-152 -449l33 -88h-78l-270 700h79l232 -602l152 449l-59 153h79l232 -602l204 602h7zM380 862q18 0 31 -13t13 -31t-13 -31t-31 -13t-30.5 13t-12.5 31t12.5 31t30.5 13zM565 862q18 0 31 -13t13 -31t-13 -31t-31 -13t-31 13
t-13 31t13 31t31 13z" />
    <glyph glyph-name="wdieresis" unicode="&#x1e85;" horiz-adv-x="682" 
d="M672 481l-151 -398l32 -83h-79l-128 335l-83 -264l30 -71h-78l-205 481h78l171 -399l83 264l-52 135h79l148 -388l148 388h7zM248 632q18 0 31 -13t13 -31t-13 -31t-31 -13t-30.5 13t-12.5 31t12.5 31t30.5 13zM433 632q18 0 31 -13t13 -31t-13 -31t-31 -13t-31 13
t-13 31t13 31t31 13z" />
    <glyph glyph-name="Ygrave" unicode="&#x1ef2;" horiz-adv-x="558" 
d="M548 700l-215 -458v-242h-79v242l-244 458h79l239 -452l212 452h8zM246 924q59 -53 122 -112l-6 -9q-51 19 -149 75q-33 19 -14 46q19 25 47 0z" />
    <glyph glyph-name="ygrave" unicode="&#x1ef3;" horiz-adv-x="434" 
d="M417 481h7l-173 -430q-24 -74 -52.5 -118.5t-59.5 -59t-58.5 -14t-63.5 12.5v71q9 -8 31 -15t53 -10t64 14.5t55 56.5l-210 492h79l167 -399zM174 694q59 -53 122 -112l-6 -9q-51 19 -149 75q-33 19 -14 46q19 25 47 0z" />
    <glyph glyph-name="endash" unicode="&#x2013;" horiz-adv-x="559" 
d="M60 346v8h439v-8h-439z" />
    <glyph glyph-name="emdash" unicode="&#x2014;" horiz-adv-x="624" 
d="M60 354h504v-8h-504v8z" />
    <glyph glyph-name="quoteleft" unicode="&#x2018;" horiz-adv-x="229" 
d="M114 617q23 0 39 -16t16 -38t-16 -38t-39 -16q-22 0 -38 15.5t-16 38.5q0 76 90 148l5 -5q-63 -53 -77 -103q14 14 36 14z" />
    <glyph glyph-name="quoteright" unicode="&#x2019;" horiz-adv-x="229" 
d="M114 711q22 0 38.5 -16t16.5 -38q0 -76 -90 -148l-5 5q61 54 77 103q-17 -15 -37 -15q-22 0 -38 16.5t-16 38.5t16 38t38 16z" />
    <glyph glyph-name="quotesinglbase" unicode="&#x201a;" horiz-adv-x="229" 
d="M115 103q22 0 38 -16t16 -38q0 -76 -90 -148l-5 5q63 55 77 103q-14 -14 -36 -14q-23 0 -39 16t-16 38t16 38t39 16z" />
    <glyph glyph-name="quotedblleft" unicode="&#x201c;" horiz-adv-x="396" 
d="M282 617q22 0 38 -15.5t16 -38.5t-16 -38.5t-38 -15.5t-38 15.5t-16 38.5q0 76 90 148l5 -5q-62 -53 -78 -103q16 14 37 14zM114 617q22 0 38 -15.5t16 -38.5t-16 -38.5t-38 -15.5t-38 15.5t-16 38.5q0 76 90 148l5 -5q-63 -53 -77 -103q14 14 36 14z" />
    <glyph glyph-name="quotedblright" unicode="&#x201d;" horiz-adv-x="396" 
d="M114 711q22 0 38 -16t16 -38q0 -76 -90 -148l-5 5q63 53 77 103q-15 -15 -36 -15q-22 0 -38 16t-16 39q0 22 16 38t38 16zM281 711q22 0 38.5 -16t16.5 -38q0 -76 -90 -148l-5 5q61 54 77 103q-17 -15 -37 -15q-22 0 -38 16t-16 39q0 22 16 38t38 16z" />
    <glyph glyph-name="quotedblbase" unicode="&#x201e;" horiz-adv-x="396" 
d="M115 103q22 0 38 -16t16 -38q0 -76 -90 -148l-5 5q61 54 77 103q-16 -14 -36 -14q-23 0 -39 16t-16 38t16 38t39 16zM282 103q22 0 38 -15.5t16 -38.5q0 -76 -90 -148l-5 5q62 53 78 103q-16 -14 -37 -14q-22 0 -38 15.5t-16 38.5t16 38.5t38 15.5z" />
    <glyph glyph-name="dagger" unicode="&#x2020;" horiz-adv-x="442" 
d="M382 541l-38 -28l-120 26l26 -88l-29 -316l-28 316q18 54 26 88l-121 -26l-38 28l38 29l120 -26l-25 118l28 38l29 -38l-26 -118l120 26z" />
    <glyph glyph-name="daggerdbl" unicode="&#x2021;" horiz-adv-x="442" 
d="M223 295l121 27l38 -29l-38 -28l-121 26l26 -118l-28 -38l-29 38l26 118l-120 -26l-38 28l38 29l120 -27l-26 122l26 122l-120 -26l-38 28l38 29l120 -26l-26 118l29 38l28 -38l-26 -118l121 26l38 -29l-38 -28l-121 26l26 -122z" />
    <glyph glyph-name="bullet" unicode="&#x2022;" horiz-adv-x="280" 
d="M140 318q33 0 56.5 -23.5t23.5 -56.5t-23.5 -56.5t-56.5 -23.5q-34 0 -57 23.5t-23 56.5t23 56.5t57 23.5z" />
    <glyph glyph-name="ellipsis" unicode="&#x2026;" horiz-adv-x="660" 
d="M114 103q22 0 38 -15.5t16 -38.5t-16 -38.5t-38 -15.5t-38 15.5t-16 38.5t16 38.5t38 15.5zM330 103q22 0 38 -15.5t16 -38.5t-16 -38.5t-38 -15.5t-38 15.5t-16 38.5t16 38.5t38 15.5zM546 103q22 0 38 -15.5t16 -38.5t-16 -38.5t-38 -15.5t-38 15.5t-16 38.5t16 38.5
t38 15.5z" />
    <glyph glyph-name="perthousand" unicode="&#x2030;" horiz-adv-x="1572" 
d="M751 743h8l-408 -777h-7zM470 515q0 -82 -60.5 -139t-144.5 -57t-144.5 57t-60.5 139t61 139t144 57t144 -57t61 -139zM265 329q64 0 102.5 53.5t38.5 132.5q0 78 -39 132t-102 54t-102 -54t-39 -132q0 -79 38.5 -132.5t102.5 -53.5zM820 387q83 0 144 -57t61 -139
t-60.5 -139t-144.5 -57t-144.5 57t-60.5 139t61 139t144 57zM820 4q64 0 102.5 54t38.5 133q0 78 -39 132t-102 54t-102 -54t-39 -132q0 -79 38.5 -133t102.5 -54zM1307 387q83 0 144 -57t61 -139t-61 -139t-144 -57q-84 0 -144.5 57t-60.5 139t61 139t144 57zM1307 4
q64 0 102.5 54t38.5 133q0 78 -39 132t-102 54t-102 -54t-39 -132q0 -79 38.5 -133t102.5 -54z" />
    <glyph glyph-name="guilsinglleft" unicode="&#x2039;" horiz-adv-x="264" 
d="M204 427l-134 -134l134 -133l-6 -6l-138 139l138 139z" />
    <glyph glyph-name="guilsinglright" unicode="&#x203a;" horiz-adv-x="264" 
d="M65 432l139 -139l-139 -139l-5 6l133 133l-133 134z" />
    <glyph glyph-name="fraction" unicode="&#x2044;" horiz-adv-x="483" 
d="M416 866h7l-356 -1032h-7z" />
    <glyph glyph-name="Euro" unicode="&#x20ac;" horiz-adv-x="921" 
d="M854 202l7 -4q-98 -203 -327 -203q-128 0 -229 79t-130 199h-115v8h113q-8 37 -8 71q0 35 8 72h-113v8h115q30 119 135 198.5t232 79.5q74 0 149.5 -27t103.5 -51v-119q-56 97 -156 146t-199 27q-86 -18 -136.5 -88t-59.5 -166h363v-8h-364q-5 -74 16 -143h294v-8h-292
v-2q40 -132 141 -197t234 -45q142 22 218 173z" />
    <glyph glyph-name="Bitcoin" unicode="&#x20bf;" horiz-adv-x="668" 
d="M363 374q64 -6 116.5 -25.5t90.5 -61t38 -99.5q0 -45 -22 -80t-59.5 -56.5t-80 -33.5t-90.5 -16v-109h-8v108q-12 -1 -35 -1h-105v-107h-7v107h-141v700h141v107h7v-107h62q43 0 78 -4v111h8v-111q209 -24 209 -162q0 -137 -202 -160zM139 692v-316h88h43q216 0 216 158
t-216 158h-131zM313 7q113 0 165 52.5t52 128.5t-52 128.5t-165 52.5h-86h-88v-362h174z" />
    <glyph glyph-name="afii61352" unicode="&#x2116;" horiz-adv-x="1199" 
d="M765 310h374v-8h-374v8zM614 127v573h7v-700h-14l-476 609v-609h-8v619l-63 81h100zM952 417q-63 0 -108.5 42.5t-45.5 104.5t45.5 104.5t108.5 42.5q62 0 107.5 -42.5t45.5 -104.5t-45.5 -104.5t-107.5 -42.5zM952 704q-48 0 -77 -40.5t-29 -99.5t29 -99.5t77 -40.5
q47 0 76 40.5t29 99.5t-29 99.5t-76 40.5z" />
    <glyph glyph-name="minus" unicode="&#x2212;" horiz-adv-x="505" 
d="M60 354h385v-8h-385v8z" />
    <glyph glyph-name="approxequal" unicode="&#x2248;" horiz-adv-x="615" 
d="M192 447q-90 0 -125 -107l-7 3q37 112 132 112q28 0 51.5 -13t55.5 -39q24 -19 38.5 -29t39 -20t49.5 -10q43 0 74.5 25t46.5 71l8 -2q-16 -49 -49.5 -75.5t-79.5 -26.5q-26 0 -51.5 10t-41 20.5t-39.5 29.5q-21 17 -33 25.5t-31.5 17t-37.5 8.5zM426 154q43 0 74.5 25.5
t46.5 71.5l8 -3q-16 -48 -49.5 -75t-79.5 -27q-26 0 -52 10t-41 20.5t-39 30.5q-21 17 -33 25.5t-31.5 17t-37.5 8.5q-90 0 -125 -107l-7 2q37 113 132 113q20 0 40.5 -8.5t32.5 -17.5t34 -27q24 -19 38.5 -29t39 -20t49.5 -10z" />
    <glyph glyph-name="notequal" unicode="&#x2260;" horiz-adv-x="504" 
d="M444 433h-104l-165 -166h269v-7h-277l-64 -64l-5 5l58 59h-96v7h104l165 166h-269v7h277l64 64l5 -5l-58 -59h96v-7z" />
    <glyph glyph-name="lessequal" unicode="&#x2264;" horiz-adv-x="423" 
d="M60 71v7h303v-7h-303zM60 281v9l303 132v-8l-293 -129l293 -128v-9z" />
    <glyph glyph-name="greaterequal" unicode="&#x2265;" horiz-adv-x="422" 
d="M60 71v7h302v-7h-302zM60 422l302 -132v-9l-302 -133v9l292 128l-292 129v8z" />
    <glyph glyph-name="commaaccent" unicode="&#xf6c3;" horiz-adv-x="206" 
d="M103 -83q17 0 30 -12.5t13 -30.5q0 -60 -72 -116l-4 3q50 42 62 82q-14 -12 -29 -12q-18 0 -30.5 13t-12.5 30q0 18 12.5 30.5t30.5 12.5z" />
    <glyph glyph-name="commaaccent.cap" horiz-adv-x="206" 
d="M103 -83q17 0 30 -12.5t13 -30.5q0 -60 -72 -116l-4 3q50 42 62 82q-14 -12 -29 -12q-18 0 -30.5 13t-12.5 30q0 18 12.5 30.5t30.5 12.5z" />
    </font>
</defs>
</svg>
